<svg width="200" height="200" viewBox="0 0 200 200" fill="none" xmlns="http://www.w3.org/2000/svg">
<g id="file-replace 1">
<g id="Group">
<path id="Vector" d="M187.5 56.25H175V50C175 43.3696 172.366 37.0107 167.678 32.3223C162.989 27.6339 156.63 25 150 25H143.75V12.5H150C159.943 12.5099 169.475 16.464 176.506 23.4945C183.536 30.5249 187.49 40.0574 187.5 50V56.25Z" fill="white"/>
<path id="Vector_2" d="M56.25 187.5H50C40.0574 187.49 30.5249 183.536 23.4945 176.506C16.464 169.475 12.5099 159.943 12.5 150V143.75H25V150C25 156.63 27.6339 162.989 32.3223 167.678C37.0107 172.366 43.3696 175 50 175H56.25V187.5Z" fill="white"/>
<path id="Vector_3" d="M75 81.25C75 76.2772 76.9754 71.508 80.4917 67.9917C84.008 64.4754 88.7772 62.5 93.75 62.5H112.5V12.5C112.5 10.8424 111.842 9.25268 110.669 8.08058C109.497 6.90848 107.908 6.25 106.25 6.25H12.5C10.8424 6.25 9.25268 6.90848 8.08058 8.08058C6.90848 9.25268 6.25 10.8424 6.25 12.5V118.75C6.25 120.408 6.90848 121.997 8.08058 123.169C9.25268 124.342 10.8424 125 12.5 125H75V81.25Z" fill="white"/>
<path id="Vector_4" d="M187.5 75H93.75C90.2982 75 87.5 77.7982 87.5 81.25V187.5C87.5 190.952 90.2982 193.75 93.75 193.75H187.5C190.952 193.75 193.75 190.952 193.75 187.5V81.25C193.75 77.7982 190.952 75 187.5 75Z" fill="white"/>
</g>
</g>
</svg>
