<svg xmlns="http://www.w3.org/2000/svg" xmlns:xlink="http://www.w3.org/1999/xlink" xmlns:a="http://ns.adobe.com/AdobeSVGViewerExtensions/3.0/" version="1.1" baseProfile="tiny" x="0px" y="0px" width="247px" height="240px" viewBox="-0.251 -0.25 247 240" xml:space="preserve" fill="white">


<path d="M78.923,210.398c-8.88,1.26-15.54-6.66-15.84-13.681c-0.279-6.569,1.15-10.85,2.641-15.36  c-4.23,1.541-7.5,4.102-11.761,5.041c-9.529,2.101-18.84-3.021-20.88-10.561c-2.08-7.689,0.62-14.852,3.36-20.641  c-3.5,1.4-8.71,2.82-12.96,1.199c-8.67-3.299-12.61-19.789-2.4-32.64c-8.46-1.409-16.54-18.38,2.4-39.6  c-8.15,12.81-11.68,29.83-3.36,31.92c8.16,2.05,13.181-3.78,17.28-7.44c8.02-7.17,17.58-16.07,27.12-19.68  c1.66-0.6,2.35-0.69,3.6-0.96c-0.92-4.62-2.14-10.78-0.96-16.56c0.95-4.66,6.28-13.1,9.12-13.68c0.94-0.19,3.9,1.13,5.521,3.36  c0.829,1.14,1.689,2.87,3.359,3.12c0.16-6.16-3.54-29.66-6-33.36c1.271-3.05,2.641-6,4.32-8.64c3.5,7.06,7.02,15.38,8.879,23.28  c-2.129,0.13-1.62-2.38-4.08-1.92c-0.02,4.78,1.56,11.21,2.16,15.6c0.689,5.06,0.14,10.59,4.08,12.48  c3.49,1.67,8.45,3.07,12.96,1.92c-1.84-12.64-3.601-26.61-5.521-39.6c-0.5-3.39-1.529-7.23-2.88-9.6c1.601-2.64,2.92-5.56,4.319-8.4  c2.21,3.23,3.561,7.22,5.28,11.04c1.729,3.83,3,8.08,3.601,12.24c-1.841-0.08-1.631-2.21-3.841-1.92  c0.649,9.38,3.101,21.14,4.08,30.72c0.29,2.84-0.16,4.69,1.92,5.52c5.149-0.77,12.181-1.74,16.801-3.84  c-1.021-5.75-0.82-11.35-2.641-16.08c-3.75-1.13-8.67-1.09-12-2.64c0.88-2.72,2.71-4.49,3.601-7.2c2.311-0.89,4.76-1.65,7.199-2.4  c-0.93-4.46-0.729-9.47-1.68-13.92c-0.341-1.57-1.971-3.3-1.921-4.8c0.04-1.33,1.44-2.9,1.921-4.08c0.649-1.6,0.689-3.03,1.92-4.08  c2.29,3.13,4.09,6.98,5.76,10.8s3.75,7.7,4.32,11.76c-1.771-0.11-2.37-2.54-4.08-1.92c-0.54,2.09,0.449,4.65,0.72,6.72  c8.33,2.07,16.141,5.93,24.24,7.44c0.83-4.94-1.58-10.5-1.681-16.08c-0.88-0.8-1.069-2.29-1.68-3.36c1.64-2.76,2.76-6.04,4.8-8.4  c2.729,7.6,7.261,14.66,8.399,23.04c-1.729,0-2.26-2.32-3.84-1.68c-0.29,2.63,0.351,6.36,1.199,8.64  c9.07,3.21,23.091,3.55,32.641,4.8c-1.93,2.87-3.05,6.55-5.521,8.88c-7.72-2.32-18.21-1.97-25.199,0.72  c-0.091,5.38,0.54,12.1,2.159,16.56c8.16,1.04,16.439,1.96,23.28,4.32c3.29,0.47,6.62,0.9,9.12,2.16  c-1.381,2.46-1.54,6.14-3.36,8.16c-3.311,0-5.71,1.03-8.399,2.16c-6,2.53-12.899,4.86-18.239,7.68  c0.67,14.891,3.939,33.939,1.199,48.72c-0.46,2.479-1.271,6.011-3.359,7.44c0.149-11.342-0.46-22.801-1.439-33.36  c-0.49-5.28-1.37-9.78-1.681-14.16c-0.16-2.26,0.569-5.39-1.681-6c-3.479,1.56-7.229,2.85-10.079,5.04c1.3,3.81,2.26,8.91,1.68,13.2  c2.28,0.12,2.471-1.851,4.801-1.681c1.46,2.119,0.93,5.25,0.479,7.921c-0.61,3.6-2.141,8.079-2.641,11.278  c-0.521,3.371-0.689,7.791,0,10.801c0.819,3.561,4.149,7.681,6.479,8.641c3.189,1.32,8.05,0.41,10.319-0.96  c5.301-3.2,8.2-10.42,8.641-18.239c0.37-6.611-2.149-12.681-3.12-17.761c-0.1-0.521,0.131-1.22,0-1.681  c-0.29-0.989-0.989-1.449-0.96-2.399c0.04-1.149,1.29-3.021,1.92-4.32c0.721-1.49,1.351-3.2,2.641-3.84  c0.689,5.07,2.84,9.521,3.84,15.12c1.141,6.381,1.19,14.86,2.16,21.6c0.431,2.99,6.141,8.67,9.601,9.602  c3.819,1.029,7.21-0.352,9.12-1.682c4.17-2.898,0.3-8.389-1.439-13.198c-1.53-4.229-3-8.08-3.841-12.24  c-0.149-0.71-0.8-1.29-0.96-1.92c-1.199-4.681-0.38-8.12-3.12-10.319c1.57-2.11,1.74-5.621,3.36-7.681  c3.34,4.66,7.34,8.66,9.359,14.64c-1,0.61-2.261-1.43-3.601-0.479c-0.34,6.17,3.91,10.909,5.521,16.8c1.12,4.12,0.971,9.89,0,14.88  c-1.47,7.51-7.061,12.67-16.08,10.801c-6.899-1.431-10.54-8.351-13.199-14.399c-1.301,0.778-1.351,2.81-1.681,4.56  c-2.069,4.65-4.279,9.16-8.641,11.521c-3.029,1.471-6.489,1.881-10.561,1.2c-0.68-0.601-1.539-1.021-2.64-1.2  c-7.761-5.101-8.271-18.81-5.761-29.761c0.229-0.648,0.83-0.93,0.96-1.68c-0.33-1.33,1.12-3.49-0.479-3.84  c-1.42-0.061-2.351,1.891-2.88,3.359c-1.729,4.779-2.25,11.301-3.12,17.279c-0.859,5.92-3.529,14.91-6.479,17.041  c-6.359,4.6-9.899-4.07-12.72-7.201c-9.391,5.371-22.78,12.432-30.24,20.642c-1.279,1.409-2.88,2.729-3.601,3.84  c-0.89,1.37-0.479,2.46-0.72,4.08c-1.12,7.66-3.49,18.41,4.319,19.92c2.721,0.24,5.62-0.26,7.2-0.96c3.64-1.62,7.62-4.939,10.8-7.92  c10.21-9.591,17.931-23.58,31.2-29.04c3.8-1.142,10.46-1.562,14.159,0c0.881-0.801,0.939-2.42,2.641-2.399  c4.801,6.399,12.511,11.16,23.761,10.319c-0.771-3.409-3.671-6.721-4.801-10.562c-1.12-0.56-1.979-1.379-2.64-2.398  c0.899-2.62,1.159-5.88,1.92-8.641c3.449,2.71,6.51,5.869,9.6,8.641c1.051,0.939,3,1.561,2.881,3.359  c-1,0.801-2.71-0.609-3.36,0.479c0.711,2.25,2.551,7.47,4.801,7.921c1.279,0.26,4.59-1.051,6.72-1.921  c5.561-2.26,10.86-5.819,14.4-9.601c14.069-15.02,17.25-51.1,11.76-77.04c-0.229-0.65-0.83-0.93-0.96-1.68  c-0.779-4.08-1.931-7.9-3.359-11.52c-1.021-2.58-1.851-5.15-2.881-7.68c-0.939-2.32-2.649-4.47-3.84-6.72  c-8.439-15.95-19.55-27.41-32.88-37.68c-9.811-7.55-21.99-13.27-34.8-17.52c-0.641,0-1.28,0-1.921,0c-1.279-0.88-3.319-1-4.561-1.92  c-5.989-0.69-10.6-1.89-16.079-2.16c-12.971-0.65-38.641,3.12-39.841,4.08c-29.02,5.24-53.72,29.84-59.52,39.12  c-2.42,3.87-4.76,7.27-7.44,11.28c-5.71,8.54-9.92,18.89-12.72,30c-0.94,3.73-2.07,7.19-2.64,11.04  c-2.92,19.71,0.17,40.62,5.04,54.96c6.89,17.3,17.109,33.46,32.88,45.12c5.47,4.04,11.66,7.77,17.76,11.28  c15.22,8.76,36.11,16.278,59.041,12.96c5.529-0.801,9.77-2.79,13.68-4.561c1.721-0.781,3.229-1.479,4.561-2.399  c2.471-1.7,5.21-5.29,8.88-3.841c0,1.359,0,2.721,0,4.08c1.28,2.851,5.439,3.721,8.641,2.641c3.149-1.07,7.521-4.98,8.88-8.16  c1.261-2.939,0.189-9.48,4.561-7.439c-0.63,4.069,1.431,7.271,4.561,7.439c3.58,0.189,5.189-3.3,6.96-5.521  c1.109-2.85-1.72-10.948,1.681-10.318c0.97,0.18,1.529,2.97,2.64,4.08c0.851,0.85,1.61,0.63,2.16,1.68c3.16,1.34,8.34,1.51,11.04,0  c3.521-1.97,0.319-4.99-1.2-6.96c-1.319-1.7-1.899-3.54-3.6-4.319c-4.551,1.42-10.431-0.59-14.881,0  c0.181,3.83,0.271,9.869-3.119,11.521c-8.729-2.552-13.881-8.681-15.36-18.479c-2.47-1.431-8.279-1.721-11.76-1.201  c-4.971,0.74-7.859,3.94-11.28,6.961c-2.319,2.051-4.939,3.979-6.96,6.24c-1.239,1.39-2.04,3.16-3.359,4.561  c-4,4.25-8.101,8.579-12.239,12.238c-2.19,1.94-4.83,4.07-7.44,5.041c-9.189,3.41-15.81-2.541-17.039-10.319  c-0.461-2.899-0.37-6.479,0-9.12c0.329-2.32,1.899-4.511,1.199-6.721c-3.17,2.619-4.68,6.66-7.68,9.119  C85.533,208.178,82.233,209.928,78.923,210.398z M245.663,105.519c1.351,10.96,1.351,23.84,0,35.28  c-0.141,1.17-0.79,2.34-0.96,3.359c-0.551,3.33-0.62,6.771-1.439,9.841c-0.54,2.021-1.801,4.278-2.641,6.479  c-2.42,6.311-5.2,13.199-9.12,18c-6.199,7.59-14.72,12.879-24.479,17.039c1.08,4.83,3.62,12.391,1.439,18.48  c-1.819,1.811-3.29,3.949-6.239,4.318c-4.53,0.57-8.87-2.358-12-3.84c-0.9,6.36-3.601,14.521-11.28,13.92  c-3.279-0.26-4.17-2.438-6.479-4.08c-1.8,1.541-2.369,4.49-4.08,6.722c-2.399,3.13-8.319,7.64-14.399,5.278  c-2.899-1.129-4.09-3.92-5.279-7.198c-5.101,1.46-8.229,4.89-12.479,7.198c-10.79,3.49-25.59,3.972-37.92,2.16  c-0.96-0.14-1.92-0.77-2.881-0.959c-5.89-1.181-10.93-2.211-16.079-4.08c-7.721-2.801-15.171-6.271-22.08-10.319  c-13.811-8.101-25.101-18.32-35.04-30.24c-3.37-4.04-5.53-8.58-8.16-13.44c-3.87-7.148-6.86-14.05-9.36-23.039  c-0.74-2.681-1.85-5.25-2.399-7.92c-3.511-17.109-2.87-37.261,0.96-55.44c2.149-4.97,2.97-10.23,5.04-15.12  c5.92-13.95,13.47-26.11,23.279-36.96c6.23-6.89,13.311-13.72,21.12-18.96c6.03-4.05,12.431-7.78,19.44-10.8  c2.18-0.94,4.149-2.3,6.24-3.12c3.46-1.35,7.42-2.17,11.039-3.36c4.711-1.55,8.521-2.09,13.921-2.88c1.17-0.17,2.359-0.81,3.6-0.96  c10.101-1.18,21.271-1.16,32.4,0c2.09,0.22,3.47,0.63,6.239,0.96c8.29,1,14.851,4.51,22.801,6.24c5.529,3.27,12.149,5.43,18,8.88  c1.71,1.01,3.27,2.68,5.039,3.84c19.229,12.52,35.011,29.86,44.641,52.32c4.01,9.34,6.96,18.13,8.641,28.8  C244.894,103.119,245.514,104.298,245.663,105.519z M180.923,95.199c-1.22-2.47-7.159-1.47-9.601-1.92  c-0.189,0.05-0.279,0.2-0.239,0.48c-0.16,0.95,0.13,3.34,0.721,4.32C174.843,97.119,178.203,96.479,180.923,95.199z   M165.083,100.958c-0.04-3.48,0.149-7.19-1.439-9.12c-7.91-0.41-14.681-1.95-23.28-1.68c-0.3,0.1-0.489,0.31-0.479,0.72  c-0.489,1.02,0.561,3.48,0.721,5.76c0.101,1.34-0.141,2.8,0,3.84c0.59,4.27,4.47,5.71,6.72,7.92  C153.482,106.159,159.062,103.338,165.083,100.958z M162.684,81.039c0.859-2.24-0.16-4.94-0.479-6.48  c-0.521-2.55,0.069-7.24-2.399-6.48c-6.221,1.91-15.811,6.27-21.601,8.64c0.09,1.11,0.17,2.23,0.479,3.12  C146.293,79.599,155.394,80.979,162.684,81.039z M151.644,62.798c2.521-1.06,6.42-1.14,7.439-3.6  c-6.399-1.95-14.101-3.23-19.439-5.521c-0.899,0.3-0.84,1.56-1.681,1.92c-0.38-0.59-1.68-0.1-2.159,0  c0.64,3.07,0.35,9.07,1.68,12.24C142.442,66.809,147.184,64.678,151.644,62.798z M151.163,141.277  c0.979-4.158,3.42-7.608,4.08-11.52c-3.591-1.4-7.2-1.521-9.12-4.561c-0.939-1.489-0.779-3.5-1.92-5.28  c-0.45,0.03-0.801,0.16-0.96,0.479c-0.351,3.59,1.18,7.951,1.439,12.722c0.29,5.18,0.54,11.25,0,15.84  c-0.561,4.739-3.021,7.56-4.08,11.278c-0.641,1.271-4.37,4-4.319,5.521c0.05,1.79,2.939,3.53,6,3.36  c3.43-1.61,4.109-5.972,5.76-9.36c0.16-3.38,1.24-5.199,1.681-7.92C150.293,148.289,150.373,144.619,151.163,141.277z   M140.604,149.439c0.181-2.939-0.38-7.28-0.721-11.041c-0.3-3.25-0.67-6.528-0.96-9.358c-0.22-2.149-0.51-4.319-1.68-5.761  c-0.08,0-0.16,0-0.24,0c-28.149,13.939-44.431,39.729-69.6,56.641c-1.771,4.979-6.93,26,10.56,23.04  c5.71-0.971,10.66-7.86,14.399-12.24c4.11-4.819,7.729-10.68,12.24-14.399c4.12-3.399,8.45-5.521,12.479-7.92  c4.17-2.479,8.641-4.391,13.2-7.439c-0.091-2.84-0.721-6.67-0.721-10.08c0-3.8-0.141-8.359,2.16-9.359  c-0.71,6.029,0.021,12.379,1.199,17.279C136.623,157.228,140.312,154.269,140.604,149.439z M129.322,118.238  c3.221-2.3,9.881-3.77,6.961-8.4c-2.141-1.67-4.9-2.56-7.681-3.84c-6.891-3.19-11.71-6.17-9.601-16.8  c1.601-4.32,5.319-6.521,9.601-8.16c1.59-0.33,3.71-0.13,3.84-1.92c-0.84-1.73-2.359-0.12-2.88,0c-4.17,0.94-10.641,2.74-14.88,3.84  c1.38,11.98,3.439,31.1,0.479,42.24c-0.271,1.011-0.771,2.841-2.16,2.881c0.061-15.351-2.38-30.26-4.08-44.641  c-5.609-0.08-11.17-1.46-15.119-2.4c-0.551,7.35,2.42,13.26,1.68,21.6c-1.05,2.63-2.279,5.08-3.12,7.92  c-5.689,10.95-18.81,13.78-28.8,20.16c-7.101,4.53-12.73,9.68-18.24,15.6c-1.72,1.841-4.32,3.621-5.52,5.762  c-0.811,1.439-2.551,5.92-2.771,6.85c-0.93,3.9-1.57,8.49-0.35,12.59c2.689,7.062,13.02,6.562,20.399,4.32  c20.94-7.609,33.771-27.681,50.4-41.04C114.493,129.168,121.604,123.758,129.322,118.238z M134.843,99.039  c0.07-3.43-0.199-6.52-1.439-8.64c-2.21,0.65-9.42,0.15-9.84,2.64c-0.229,1.34,2.71,3.23,3.84,3.84  C129.793,98.167,132.383,98.647,134.843,99.039z M90.923,105.278c0.931-3.07-0.399-7.76-1.199-9.6c-2.38,1.22-1.78,5.42-4.08,6.72  c-4.38-3.11-7.23-5.53-13.92-5.52c-11.99,0.03-19.75,8.19-26.16,14.16c-6.141,5.73-11.92,12.689-22.561,12.72  c-7.569,7.03-9.63,29.771,6.24,26.16c5.13-1.17,7.46-4.54,10.561-7.92c1.84-2,3.93-3.83,5.76-5.761c3.49-3.699,7.149-7.83,12-10.801  c4.859-2.989,10.1-5.149,15.12-7.68c5.189-2.62,10.87-4.75,14.88-8.16C88.623,108.688,90.783,105.729,90.923,105.278z   M89.483,93.999c0.189-4.21-1.08-8.53-1.44-12.96c-0.319-3.89-0.75-4.09-2.88-6c-2.05-1.84-5.88-8.52-8.88-8.4  c-2.229,0.09-7.43,5.74-6.72,13.44c0.66,7.24,8.069,8.25,14.399,10.08C85.644,91.599,87.113,93.249,89.483,93.999z"/>




<path d="M222.442,116.318c1.95,16.65,6.891,35.791-0.239,50.16c-1.32-10.25-0.931-20.67-2.399-30.72  c-0.15-1.01-0.811-1.89-0.961-2.88c-0.17-1.08,0.11-2.3,0-3.359c-1.329-12.531-3.819-25.791-5.76-38.4  c-1.33-8.67-1.439-18.29-4.8-24.72c1.521-2.8,2.81-5.83,4.56-8.4c3.2,7.09,6.87,13.91,8.641,22.56c-1,1.1-2.021-1.78-3.601-1.68  c-0.43,6.85,1.921,13.86,2.641,21.12c0.109,1.06-0.141,2.07,0,3.12c0.25,1.89,0.67,3.68,0.96,6.48  C221.703,111.758,222.184,114.048,222.442,116.318z"/>
<path d="M222.203,198.878c-1.101,2.898-2.57,5.43-4.32,7.68c-3.29-1.18-5.489-3.47-8.159-5.279c1.159-3,3.149-5.17,4.319-8.159  C217.232,194.568,219.993,196.448,222.203,198.878z"/>






<path d="M110.844,122.079c0.84,3.31-2.971,6.108-4.32,8.64c-3.101-1.539-5.601-3.68-8.399-5.521c1.189-3.369,3.229-5.89,5.04-8.64  C104.272,117.647,110.394,120.298,110.844,122.079z"/>
<path d="M107.724,106.238c0.39,2.91-3.189,5.57-4.32,8.16c-3.18-1.46-5.649-3.63-8.399-5.52c0.91-3.33,3.141-5.34,4.319-8.4  C101.243,101.039,107.463,104.349,107.724,106.238z"/>
<path d="M56.123,148.958c2.76,2.12,6.58,3.18,8.16,6.479c-1.25,2.99-2.729,5.75-4.56,8.16c-2.66-2.14-5.971-3.63-8.4-6  C52.403,155.148,54.523,151.678,56.123,148.958z"/>
</svg>