<svg xmlns="http://www.w3.org/2000/svg" xmlns:xlink="http://www.w3.org/1999/xlink" version="1.1" x="0px" y="0px" viewBox="0 0 90 112.5" fill="#ffffff" xml:space="preserve"><path d="M59.609,25.926h-6.814l-2.358-2.675h9.173V25.926z M74.844,31.045H59.36v2.675h15.483V31.045z M74.844,38.839H59.36v2.675  h15.483V38.839z M74.844,46.636H59.36v2.675h15.483V46.636z M30.869,34.207H15.133v2.675h15.735V34.207z M46.102,42.001H15.133  v2.675h30.968V42.001z M46.102,49.794H15.133v2.675h30.968V49.794z M42.304,57.591h-27.17v2.675h23.346L42.304,57.591z M44.233,23.9  v10.175h9.572v-0.25L44.233,23.9z M53.801,49.725V36.882H41.434V23.375H7.55v54.392h38.347l-0.005,2.675H4.875V20.7h40.061  l11.656,12.046V47.45L53.801,49.725z M33.125,18v-8h40.694l11.306,11.616V70H67.099l-3.875-3h18.901V26h-12V13h-34v5H33.125z   M73.116,12.771v10.174h9.571v-0.25L73.116,12.771z M54.665,52.376l-12.361,8.466l12.361,8.462v-5.658h9.725v-6.094h-9.725V52.376   M58.297,66.958v5.657h-9.725v6.094h9.725v5.179l12.365-8.464L58.297,66.958"/>
</svg>