<svg width="200" height="200" viewBox="0 0 200 200" fill="none" xmlns="http://www.w3.org/2000/svg">
<g id="document-copy 1">
<path id="Vector" d="M179.168 4.16675H45.8346C44.7296 4.16675 43.6698 4.60573 42.8884 5.38714C42.107 6.16854 41.668 7.22835 41.668 8.33342V20.8334H154.168C157.483 20.8334 160.663 22.1504 163.007 24.4946C165.351 26.8388 166.668 30.0182 166.668 33.3334V170.833H179.168C180.273 170.833 181.333 170.394 182.114 169.613C182.896 168.832 183.335 167.772 183.335 166.667V8.33342C183.335 7.22835 182.896 6.16854 182.114 5.38714C181.333 4.60573 180.273 4.16675 179.168 4.16675Z" fill="white"/>
<path id="Vector_2" d="M154.168 29.1667H20.8346C19.7296 29.1667 18.6698 29.6057 17.8884 30.3871C17.107 31.1685 16.668 32.2283 16.668 33.3334V191.667C16.668 192.772 17.107 193.832 17.8884 194.613C18.6698 195.394 19.7296 195.833 20.8346 195.833H154.168C155.273 195.833 156.333 195.394 157.114 194.613C157.896 193.832 158.335 192.772 158.335 191.667V33.3334C158.335 32.2283 157.896 31.1685 157.114 30.3871C156.333 29.6057 155.273 29.1667 154.168 29.1667ZM87.5013 145.833H50.0013C48.8962 145.833 47.8364 145.394 47.055 144.613C46.2736 143.832 45.8346 142.772 45.8346 141.667C45.8346 140.562 46.2736 139.502 47.055 138.72C47.8364 137.939 48.8962 137.5 50.0013 137.5H87.5013C88.6064 137.5 89.6662 137.939 90.4476 138.72C91.229 139.502 91.668 140.562 91.668 141.667C91.668 142.772 91.229 143.832 90.4476 144.613C89.6662 145.394 88.6064 145.833 87.5013 145.833ZM125.001 112.5H50.0013C48.8962 112.5 47.8364 112.061 47.055 111.28C46.2736 110.498 45.8346 109.438 45.8346 108.333C45.8346 107.228 46.2736 106.169 47.055 105.387C47.8364 104.606 48.8962 104.167 50.0013 104.167H125.001C126.106 104.167 127.166 104.606 127.948 105.387C128.729 106.169 129.168 107.228 129.168 108.333C129.168 109.438 128.729 110.498 127.948 111.28C127.166 112.061 126.106 112.5 125.001 112.5ZM125.001 79.1668H50.0013C48.8962 79.1668 47.8364 78.7278 47.055 77.9464C46.2736 77.165 45.8346 76.1052 45.8346 75.0001C45.8346 73.895 46.2736 72.8352 47.055 72.0538C47.8364 71.2724 48.8962 70.8334 50.0013 70.8334H125.001C126.106 70.8334 127.166 71.2724 127.948 72.0538C128.729 72.8352 129.168 73.895 129.168 75.0001C129.168 76.1052 128.729 77.165 127.948 77.9464C127.166 78.7278 126.106 79.1668 125.001 79.1668Z" fill="white"/>
</g>
</svg>
