<svg width="32" height="40" viewBox="0 0 32 40" fill="none" xmlns="http://www.w3.org/2000/svg">
<path fill-rule="evenodd" clip-rule="evenodd" d="M16.0199 10.1875L14.996 13.7033V13.6987C14.8601 14.1587 14.2077 14.3408 13.8544 14.0175L11.1588 11.5355C11.0863 11.4672 11.0319 11.3852 11.0093 11.2896L9.76344 6.56708C9.52334 5.66538 10.1757 4.69992 11.2222 4.40846L12.382 4.08512C13.4421 3.78911 14.5067 4.29006 14.7514 5.20086L16.0199 9.90974C16.047 10.0008 16.047 10.0965 16.0199 10.1875ZM11.8481 15.2015L10.8197 11.6903C10.7925 11.5993 10.7427 11.5173 10.6747 11.4535L7.0731 8.18373C6.37543 7.55072 5.21113 7.70556 4.48174 8.52984L3.67987 9.43154C2.95501 10.2467 2.92783 11.4125 3.61191 12.041L7.19995 15.3381C7.27244 15.4019 7.35852 15.4474 7.45818 15.4656L11.0598 16.0895C11.531 16.1715 11.9795 15.6615 11.8481 15.2015ZM7.245 15.7799L9.99945 18.1753L10.004 18.1708C10.3619 18.485 10.2577 19.159 9.81824 19.3457L6.45219 20.7757C6.36158 20.8121 6.26191 20.8303 6.16677 20.8121L1.37366 19.9878C0.458526 19.8284 -0.139481 18.8356 0.0281425 17.7563L0.213887 16.5632C0.38604 15.4748 1.27852 14.7097 2.20724 14.8645L6.99583 15.6615C7.08643 15.6751 7.17251 15.7161 7.245 15.7799ZM10.0484 21.6773L6.44228 21.1582C6.34715 21.1445 6.25201 21.1582 6.16593 21.1946L1.70806 23.1301C0.842764 23.5035 0.502988 24.6329 0.946963 25.6439L1.43171 26.7505C1.87116 27.7479 2.90861 28.2625 3.76484 27.8936L8.24083 25.9809C8.33144 25.9445 8.40393 25.8807 8.46282 25.7987L10.5241 22.7657C10.7914 22.3695 10.5241 21.7456 10.0484 21.6773ZM11.9753 24.601L8.66365 26.1221C8.57758 26.1631 8.50509 26.2223 8.45073 26.2997L5.74157 30.3482C5.21605 31.1315 5.53318 32.27 6.45284 32.8803L7.45858 33.5497C8.36465 34.1509 9.51536 34.0188 10.0363 33.2446L12.7727 29.2052C12.827 29.1232 12.8588 29.0321 12.8588 28.9319L12.963 25.2568C12.9766 24.7787 12.4103 24.4007 11.9753 24.601ZM18.4541 14.1541L21.2041 11.7542C21.2766 11.6904 21.3309 11.613 21.3581 11.5219L22.8214 6.87223C23.1068 5.97053 22.4816 4.97319 21.4306 4.6453L20.2799 4.29009C19.2424 3.96675 18.1778 4.42216 17.8924 5.31475L16.3974 9.96442C16.3657 10.0555 16.3657 10.1557 16.3928 10.2513L17.3216 13.8035C17.4439 14.268 18.0917 14.4684 18.4496 14.1541H18.4541ZM24.7236 15.8891L21.1174 16.4129V16.4083C20.6463 16.4766 20.2068 15.9529 20.3563 15.4975L21.4844 12.0045C21.5116 11.9135 21.5705 11.8269 21.643 11.7677L25.4031 8.66643C26.1235 8.07441 27.2651 8.27023 27.9628 9.10362L28.7375 10.0281C29.4442 10.8706 29.4352 12.0501 28.7103 12.6558L24.9773 15.7753C24.9048 15.839 24.8187 15.8755 24.7236 15.8891ZM22.1444 19.7601L25.4561 21.2811C25.5422 21.3221 25.6373 21.3358 25.7279 21.3267L30.5437 20.7347C31.4769 20.6208 32.1202 19.6326 31.9798 18.5396L31.8258 17.3373C31.6853 16.2535 30.8291 15.4702 29.9094 15.5795L25.0801 16.1442C24.9849 16.1533 24.8943 16.1943 24.8173 16.258L21.9904 18.5851C21.6189 18.8903 21.7095 19.5643 22.1444 19.7646V19.7601ZM23.1797 26.2132L21.209 23.1347H21.2136C20.9553 22.7294 21.2453 22.1146 21.721 22.0599L25.3543 21.641C25.4494 21.6273 25.5491 21.6455 25.6352 21.6865L30.0025 23.836C30.836 24.2459 31.135 25.3707 30.6684 26.3589L30.152 27.4519C29.6808 28.4492 28.6071 28.9274 27.7599 28.5175L23.3881 26.3999C23.3021 26.3589 23.2341 26.2952 23.1797 26.2132ZM18.6069 25.4663V29.1278C18.6069 29.2234 18.6341 29.319 18.6839 29.3965L21.2209 33.5543C21.7148 34.3604 22.8745 34.5425 23.8032 33.955L24.8271 33.3129C25.7468 32.7346 26.1047 31.6279 25.6244 30.8264L23.1056 26.6458C23.0557 26.5638 22.9832 26.4955 22.8926 26.4545L19.6127 24.8333C19.1823 24.6238 18.6069 24.9836 18.6069 25.4618V25.4663ZM13.1976 29.0959L15.1638 26.0128H15.1683C15.4266 25.6121 16.1061 25.6212 16.3507 26.031L18.2399 29.1779C18.2943 29.2644 18.3169 29.36 18.3169 29.4557L18.1855 34.3422C18.1584 35.2757 17.2659 36.0135 16.1786 35.9998L14.9735 35.9816C13.8772 35.9634 12.9983 35.1847 13.0164 34.2374L13.1161 29.36C13.1161 29.269 13.1433 29.1779 13.1976 29.0959Z" fill="black"/>
</svg>
