<svg width="16" height="16" viewBox="0 0 16 16" fill="none" xmlns="http://www.w3.org/2000/svg">
<path d="M15.738 0.803345C15.5727 0.678011 15.3593 0.636678 15.158 0.690011L8 2.64201L0.842 0.690011C0.641333 0.636678 0.427333 0.677345 0.262 0.803345C0.0973333 0.930011 0 1.12534 0 1.33334V12.6667C0 12.9673 0.201333 13.2307 0.491333 13.31L7.82467 15.31C7.882 15.3253 7.94133 15.3333 8 15.3333C8.05867 15.3333 8.118 15.3253 8.17533 15.31L15.5087 13.31C15.7987 13.2307 16 12.9673 16 12.6667V1.33334C16 1.12534 15.9027 0.930011 15.738 0.803345ZM6.468 12.176L2.51467 11.098L2.86533 9.81134L6.81867 10.8893L6.468 12.176ZM6.468 9.18201L2.51467 8.10401L2.86533 6.81734L6.81867 7.89534L6.468 9.18201ZM6.468 6.37068L2.51467 5.29268L2.86533 4.00601L6.81867 5.08401L6.468 6.37068ZM9.532 12.176L9.18133 10.8893L13.1347 9.81134L13.4853 11.098L9.532 12.176ZM9.532 9.18201L9.18133 7.89534L13.1347 6.81734L13.4853 8.10401L9.532 9.18201ZM9.532 6.37068L9.18133 5.08401L13.1347 4.00601L13.4853 5.29268L9.532 6.37068Z" fill="white"/>
</svg>
