<!-- Generated by IcoMoon.io -->
<svg version="1.1" xmlns="http://www.w3.org/2000/svg" width="4096" height="4096" viewBox="0 0 4096 4096">
<g id="icomoon-ignore">
</g>
<path d="M2894.26 2888.572q33.724-15.364 76.028-44.288 50.996-33.724 50.996-49.12 0-26.036-42.408-81.864t-74.076-55.828q-23.080 0-46.164 29.332t-23.080 57.272q0 22.148 24.144 78.908 23.080 49.12 34.624 65.492zM2550.428 2366.8q58.784 0 58.784-33.724-0.996-42.408-54.876-42.408-9.664 0-27.376 26.036t-17.76 36.516q6.708 13.416 41.332 13.416zM3084.82 1919.056q3.792-15.364 3.792-28.936 0-41.332-24.144-41.332-8.584 0-23.080 8.584-15.364 6.708-15.364 16.372 0 7.784 14.968 18.788t43.748 26.54zM2887.548 2443.832l-4.832-2.956q-59.664-44.288-122.324-86.696 0-2.956 52.072-109.776 4.832-7.784 11.54-7.784 5.788 0 55.828 33.284t64.456 48.58q44.288-90.448 50.088-90.448 8.584 0 68.444 39.992t59.664 47.692q0 6.708-3.392 17.36t-9.664 24.144-15.832 31.328-24.96 38.916q-1.876 2.956-3.792 4.292t-2.956 1.396l-5.788-1.876q-52.072-37.576-115.54-79.988-10.576 23.080-19.328 39.992t-15.364 28.452-10.576 17.76-7.784 6.188zM1609.684 2936.756l-4.832-0.996q-58.784-44.288-119.44-84.808l-2.956-2.956q54.876-116.488 61.66-116.488 3.792 0 20.664 10.176t45.696 29.332q60.66 41.332 60.66 47.24 0 6.708-3.792 16.912t-10.176 24.144-16.372 31.728-22.548 38.916q-4.832 6.708-8.584 6.708zM2814.272 2131.772q-3.792-0.996-3.792-21.204l1.876-43.304q8.584-62.536 8.584-145.472 0-77.032-31.328-517.48t-31.328-505.060q0-77.032-24.144-125.116 0-26.94 44.288-129.104 6.708-12.572 8.584-12.572 4.832 0 22.148 40.508t46.164 120.328q62.536 161.836 62.536 185.78 0 11.54-6.708 11.54-14.496 0-60.66-52.88-0.996-0.996-1.876-2.416t-2.956-1.396-1.876 13.416q0 6.708 26.94 379.344t26.94 432.4q0 181.976-54.876 321.544-22.148 50.088-28.936 50.996zM3505.684 2775.040q-1.876 0-3.392-1.876t-1.876-5.788-0.54-11.54q0-14.496 4.832-45.296 6.708-61.66 6.708-146.276 0-73.236-31.728-514.64t-31.728-507.852q0-73.236-22.148-123.196 0-26.94 42.408-129.908 5.788-10.576 11.54-10.576 6.708 0 68.444 160.772t61.66 185.78q0 9.664-5.788 9.664-14.496 0-60.66-52.88l-4.832-2.956q-3.792 0-3.792 14.496 54.876 743.32 54.876 809.776 0 182.988-54.876 320.676-20.156 52.072-28.936 52.072zM639.124 1410.6q0-1.876 2.416-3.792t6.188-7.784q40.508-46.164 40.508-61.66 0-14.496-11.54-14.496-7.784 0-13.416 3.792t-7.784 3.792q3.792-40.508 32.744-40.508 21.204 0 21.204 26.036 0 20.156-16.372 44.288t-42.408 42.408q-9.664 7.784-11.54 7.784zM773.064 3032.972q0-0.996 1.876-3.792t5.788-7.784q40.508-45.296 40.508-60.66t-11.54-15.364q-7.784 0-13.416 3.392t-8.584 3.392q5.788-39.456 33.724-39.456 20.156 0 20.156 26.036 0 46.164-58.784 87.604zM3101.196 2228.032q50.088-52.88 50.088-70.324t-17.36-17.36q-7.784 0-21.204 9.664l-1.876-1.876q5.788-45.296 36.516-45.296 24.96 0 24.96 28.936 0 52.072-66.448 100.112-9.664 8.584-12.572 8.584zM2312.624 1093.756q0-4.832 14.496-24.144 69.244-99.176 69.244-131.904 0-30.868-24.96-30.868-16.372 0-44.288 20.156 0-0.996-4.832-0.996 1.876-4.832 1.876-16.372 7.784-74.076 63.616-74.076 38.512 0 42.408 61.66 0 34.624-20.156 78.908-26.94 55.828-75.156 100.112-8.584 8.584-13.956 12.972t-8.18 4.292zM997.452 2354.18q-2.956 0-2.956-11.54 0-20.156-23.080-77.032-12.572-27.912-19.756-41.872t-12.972-13.956-7.784 3.792-10.576 3.792q-10.576 0-26.94-13.416-14.496-15.364-14.496-24.96 0-3.792 11.54-26.94 14.496-22.148 17.36-22.148 31.728 0 59.268 39.456t38.112 103.964v6.708q2.956 0 2.956-1.876l3.792-4.832q3.792-39.456 24.96-114.608 7.784-17.36 15.364-29.792t15.832-18.248 17.76-5.788q13.416 0 26.036 17.36 5.788 8.584 8.584 15.832t2.956 12.080q0 35.7-15.364 35.7-1.876 0-12.080-12.080t-21.744-12.080q-12.572 0-23.080 27.376t-20.156 84.28q-1.876 15.364-5.788 28.936t-7.784 22.548-5.788 16.912q-8.584 12.572-14.496 12.572zM867.36 1790.944q-7.784 0-7.784-12.572 0-20.156-21.744-76.492t-31.328-56.368q-6.708 0-8.584 3.792t-10.576 3.792q-9.664 0-25.496-14.496t-15.832-24.144q0-3.792 13.416-26.036t17.36-22.148q32.744 0 58.784 38.916t36.516 102.528q1.876 2.956 1.876 7.784 2.956 0 2.956-1.876l1.876-5.788q4.832-38.512 26.036-113.544 22.148-53.952 49.12-53.952 14.496 0 26.94 18.248 4.832 7.784 8.18 13.956t3.392 12.972q0 7.784-4.832 19.328-3.792 16.372-11.54 16.372-1.876 0-12.080-12.572t-21.744-12.572-22.148 27.912-21.204 83.74q-8.584 41.332-16.912 62.060t-14.968 20.664zM2409.876 2196.364q1.876 12.572 1.876 24.96 18.248 470.776 18.248 552.64 0 194.56-77.032 335.044-5.788 8.584-8.584 8.584-4.832 0-4.832-18.248l0.996-10.576q9.664-56.872 13.416-159.84 0-109.776-21.204-652.756l-0.996-55.828-0.996-24.144q-194.56-7.784-337.040-109.776l-190.568-138.688q-9.664-9.664-24.144-21.204l-2.956-3.792q-18.248-6.708-19.328-6.708-1.876 0-1.876 1.876 0 0.996 1.396 5.788t6.188 11.54q44.288 82.812 44.288 121.32 0 130.984-90.448 198.352-74.076 50.088-313.892 131.904l-27.912 13.416q-121.32 50.996-159.84 86.696-81.864 60.66-235.928 240.76l-23.080 24.96q-19.328 89.596-19.328 123.196 0 118.364 78.908 218.508 108.756 132.86 312.96 132.86 228.14 0 493.884-137.692 46.164-108.756 59.664-108.756 5.788 0 5.788 1.876l-0.996 0.996q0 15.364-23.080 83.74 74.076-42.408 137.692-93.404 23.080-18.248 41.872-34.124t32.208-29.792 23.080-26.036 14.496-21.744 4.832-18.248q0-5.788-47.24-101.992-58.784-111.656-85.616-217.68-12.572-35.7-26.94-48.58t-14.496-27.376q0-9.664 21.204-114.608 3.792-18.248 9.664-18.248 2.956 0 7.248 2.416t9.124 5.372q28.936 32.744 127.112 130.984 16.372 16.372 16.372 24.144 0 12.572-19.328 12.572-20.156 0-59.664-13.416 1.876 13.416 63.616 137.692 26.036 50.088 38.112 93.944t12.080 81.324q0 145.472-64.456 219.556-104.944 121.32-301.42 232.972-19.328 75.156-19.328 125.116 0 60.66 26.94 95.28 32.744 41.332 88.572 41.332 94.388 0 190.568-96.36 33.724-41.332 67.368-79.988 4.832-4.832 62.536-69.244 77.032-91.528 210.924-163.728 93.404-52.072 395.708-176.204-26.94-76.028-26.94-151.108 0-116.488 35.7-186.808 36.516-74.076 92.392-74.076 45.296 0 94.388 84.808 40.508 76.028 40.508 135.816 0 155.94-91.528 256.056 64.456 63.616 152.188 63.616 77.032 0 147.356-55.828 20.156-20.156 20.156-127.112 0-66.448-55.828-828.024-55.828-766.468-55.828-843.896t-24.96-124.72q0-27.912 45.296-129.104 1.876-2.956 2.956-6.188t2.956-4.292q0.996 0 0.996-0.996 9.664 0 73.236 155.94 44.288 127.112 55.828 157.020 0.996 10.576 2.956 17.36 1.876 10.576 1.876 14.496 0 11.54-6.708 11.54-7.784 0-22.148-12.972t-35.7-38.916q-0.996-1.876-2.956-3.392t-2.956-1.396q-3.792 0-3.792 13.416l49.12 711.536q52.072 706.704 52.072 787.62 0 223.308-79.988 356.196-68.444 108.756-163.728 108.756-83.74 0-176.204-77.032-48.092-39.456-75.156-86.696l-172.312 75.156q-260.888 104.944-340.872 168.56-79.988 59.664-232.972 235.928-90.448 106.824-181.976 106.824-80.816 0-136.692-72.2-59.664-71.24-59.664-174.208 0-52.88 15.364-115.54-232.076 118.364-432.4 118.364-293.632 0-405.288-287.948-21.204-54.876-21.204-143.476 0-87.604 17.36-169.416-61.66 49.12-127.112 49.12-74.076 0-131.904-67.368-64.456-78.024-64.456-180.992 0-143.476 122.324-374.556 12.572-24.96 19.328-24.96 3.792 0 3.792 7.784 0 21.204-52.072 159.84-26.036 70.324-38.916 125.116t-12.972 95.28q0 59.664 27.912 96.36 32.744 39.456 85.616 39.456 95.28 0 193.52-96.36l65.492-75.156q42.408-53.952 58.784-71.24 85.616-94.388 216.6-164.628 76.028-40.508 267.596-108.756 132.86-48.092 182.988-79.988 19.328-8.584 19.328-24.96v-9.664q-24.144-64.456-112.192-148.264t-242.096-184.932l-24.96-17.36q-68.444 35.7-141.48 80.816-68.444 42.408-299.524 200.228-111.656 64.456-204.14 64.456-96.36 0-168.56-68.444-77.032-73.236-77.032-176.204 0-148.264 149.232-379.344 14.496-20.156 21.204-20.156 5.788 0 5.788 2.956l-0.996 0.996q0 24.144-63.076 161.836t-63.076 222.496q0 59.664 40.508 96.36 35.7 39.456 101.992 39.456 108.756 0 205.060-55.828 123.196-84.808 238.86-166.624 67.368-45.296 132.86-82.812l-371.744-243.648q-52.88-29.792-72.2-43.304-1.876-2.956-3.792-9.664t-2.956-17.76-0.996-25.496q0-54.876 15.364-118.364 16.372-69.244 40.508-84.808 162.648-119.44 706.704-320.676 552.64-203.184 728.956-203.184 52.88 0 72.2 17.36t19.328 58.784q0 46.164-33.284 103.964t-101.572 127.112l-56.872 50.088q-24.144 18.248-48.092 42.408-83.74 79.988-111.656 129.104-21.204 31.728-27.912 31.728v-0.996l-0.996-0.996q0-48.092 52.88-126.152 35.7-54.876 55.828-73.236 155.048-139.568 186.808-182.988v-11.54q0-24.144-86.696-24.144-135.816 0-655.712 191.64-519.028 196.472-711.536 319.668-6.708 3.792-6.708 6.708t2.416 4.832 7.248 3.792q352.416 177.144 576.8 308.128 174.208-78.908 260.012-78.908-4.832-9.664-4.832-24.96-2.956-2.956-3.792-8.18t-0.996-12.972l-1.876-1.876q-52.88-132.86-74.076-260.012-1.876-12.572-3.392-19.756t-4.292-8.18q-2.956-21.204-23.080-40.508l43.304-83.74q13.416-20.156 21.204-20.156 2.956 0 7.248 4.832t12.972 15.364l111.656 144.4q11.54 13.416 17.36 23.62t5.788 15.832q0 10.576-12.572 11.54-19.328 0-71.24-27.912 41.332 218.508 147.356 275.384 69.244 39.456 169.416 64.456 36.516 11.54 36.516 37.576l-0.996 6.708-24.144 103.964q-1.876 7.784-14.496 7.784-2.956 0-7.784-0.54t-10.176-2.956-12.080-4.292q-103.964-47.24-255.224-47.24-73.236 0-154.064 22.148 163.728 99.176 305.172 197.356 92.392 63.616 188.688 128.028 129.908 66.448 250.424 72.2-19.328-538.184-19.328-617.604t-17.36-121.856q0.996-27.912 43.304-116.488 4.832-9.664 7.784-9.664 9.664 0 57.704 146.276 52.072 149.232 52.072 170.436-0.996 8.584-6.708 8.584-14.496 0-52.88-49.12 0-1.876-1.876-2.956t-2.956-0.996q-2.956 0-2.956 6.708l21.204 584.48q10.576-0.996 23.080-2.956 76.028 0 147.356-56.872 20.156-15.364 20.156-122.324 0-69.244-36.516-528.608-29.792-465.148-29.792-542.976t-24.96-124.272q0-28.936 44.288-132.86 2.956-12.572 7.784-12.572 1.876 0 5.372 4.292t7.248 11q10.576 24.96 54.876 146.276 3.792 6.708 3.792 10.576 59.664 152.188 59.664 176.204 0 4.832-1.396 7.248t-4.292 2.416q-7.784 0-22.548-12.572t-38.112-37.576q-0.996-1.876-2.956-2.416t-2.956-0.54q-3.792 0-3.792 11.54l3.792 49.12q57.704 685.5 57.704 846.288 0 229.22-81.864 356.196-78.024 108.756-180.1 108.756zM2078.624 1890.112l14.496-19.328q74.076-78.908 74.076-105.96 0-23.080-24.144-23.080-21.204 0-32.744 11.54l-4.832-1.876q1.876-1.876 2.416-4.832l1.396-8.584q11.54-53.952 53.952-53.952 36.516 0 36.516 45.296 0 32.744-27.376 75.628t-71.66 73.632q-17.36 11.54-22.148 11.54zM486.14 2344.516q0-2.956 15.364-21.204 26.036-27.912 43.304-50.088t25.496-38.112 8.18-25.496q0-26.94-24.144-26.94-14.496 0-24.96 6.708l-10.576 6.708q-0.996-0.996-4.832-0.996 1.876-3.792 3.792-16.372 12.572-58.784 58.784-58.784 38.512 0 38.512 49.12 0 35.7-29.332 82.812t-77.572 79.988zM1086.024 827.116q1.876-10.576 5.788-21.744t9.124-23.62 12.080-24.96q799.196-302.316 815.56-302.316 0 5.788-1.876 13.416-14.496 33.724-21.204 39.456-2.956 3.792-99.576 40.908t-286.384 107.36q-388.116 145.472-433.22 171.412zM2065.156 1482.84q-5.788 0-5.788-14.496 0-26.036-28.936-98.236t-39.456-72.2q-9.664 0-11.54 5.788t-13.416 5.788q-5.788 0-14.496-5.372t-19.328-14.968q-3.792-4.832-8.584-8.584t-7.248-8.18-3.392-7.784-0.996-6.188q0-4.832 16.912-34.124t21.744-29.332q42.408 0 76.028 50.488t46.164 132.32l2.956 1.876v8.584q1.876 0 1.876-2.956 0-19.328 37.576-153.056 14.496-33.724 29.792-51.536t31.728-17.76q18.248 0 34.124 22.548t15.832 35.16q0 10.576-5.788 27.912-1.876 6.708-4.292 10.576t-5.372 5.788-5.788 1.876q-0.996 0-3.392-1.876t-5.372-5.372-7.784-8.18q-12.572-16.372-26.94-16.372-15.364 0-29.332 35.7t-27.376 106.824q-8.584 62.536-23.080 86.696-3.792 6.708-6.708 11t-5.788 5.788-4.832 1.396zM1410.524 3155.368q0-1.876 11.54-17.36 15.364-18.248 24.96-33.284t15.832-26.54 9.664-20.664 3.392-14.968q0-22.148-19.328-22.148-10.576 0-28.936 14.496l-4.832-1.876q0.996-2.956 0.996-11.54 5.788-50.996 48.092-50.996 29.792 0 29.792 43.304 0 69.244-74.076 129.104-12.572 11.54-17.36 12.572zM1914.048 2251.112q0 24.96-24.144 39.456-13.416 9.664-26.036 9.664-31.728 0-31.728-30.868 0-39.456 48.092-85.616 16.372-17.36 32.208-29.332t28.452-16.912q6.708 0 8.584 1.876 0 3.792-5.788 8.584-22.148 13.416-48.092 39.456-5.788 6.708-10.576 12.572t-8.584 10.576-5.788 9.664-2.956 7.784q6.708-4.832 14.496-4.832 31.728 7.784 31.728 27.912zM1886.132 1051.412q-32.744 0-32.744-35.7t29.332-79.448 57.272-61.2q3.792 0 3.792 4.832 0 3.792-3.792 6.708-19.328 18.248-39.456 48.58t-20.156 46.704q9.664-8.584 21.204-8.584 30.868 0 30.868 24.96t-15.364 38.916-30.868 13.956zM809.564 2328.144q0 8.584-3.792 23.080-23.080 81.864-23.080 115.54 0 34.624 23.080 34.624 3.792 0 10.576-3.792 20.156-8.584 26.036-26.94h3.792q6.708 26.94 6.708 39.456 0 36.516-27.912 50.996-9.664 4.832-18.248 4.832-22.148 0-37.576-30.868-10.576-22.148-10.576-54.876 0-65.492 37.576-131.904 3.792-6.708 6.708-11t4.832-6.188zM2071.864 584.464v-1.876q0-0.996 2.416-3.792t5.372-7.784q49.12-50.088 49.12-66.448 0-17.36-14.496-17.36-9.664 0-17.36 6.708l-7.784 0.996q4.832-43.304 36.516-43.304 24.144 0 24.144 27.912 0 21.204-18.248 48.58t-47.24 47.692q-11.54 8.584-12.572 8.584zM2242.3 2716.26q-36.516 0-36.516-61.66 0-23.080 6.708-50.996 10.576-48.092 29.792-72.2l3.792-1.876q2.956 0 2.956 2.956l-0.996 6.708q-11.54 23.080-18.248 58.784-6.708 23.080-6.708 35.7 0 9.664 3.792 15.364 9.664-18.248 31.728-18.248 26.94 0 26.94 37.576 0 11.54-5.788 22.148-9.664 20.156-37.576 26.036zM2178.8 2469.812h-1.876q0-3.792 6.708-21.204 26.94-69.244 26.94-97.18 0-24.96-17.36-24.96-13.416 0-32.744 21.204h-3.792l-2.956-26.94q0-36.516 40.508-50.088 20.156 0 32.744 29.792 3.792 13.416 3.792 32.744 0 58.784-40.508 118.364-4.832 8.584-7.248 12.572t-4.292 5.788zM1443.26 3532.744q-20.156-0.996-20.156-23.080 0-17.36 17.76-43.304t31.328-35.7h1.876l1.876 2.956v2.956q-12.572 10.576-24.144 28.452t-11.54 27.376q3.792-4.832 13.416-4.832 15.364 0 15.364 13.416 0 31.728-26.036 31.728zM1934.172 3407.672q0-3.792 13.416-18.248 31.728-33.724 47.24-56.872t15.364-34.624q0-21.204-19.328-21.204-11.54 0-19.328 4.832t-10.576 6.708l-1.876-1.876q8.584-59.664 48.092-59.664 31.728 0 31.728 38.512 0 27.912-23.62 66.448t-62.060 63.616q-15.364 12.572-19.328 12.572zM1173.516 2709.552q8.584-33.724 26.94-69.244l321.544-120.328q151.108-56.872 228.14-84.808t78.908-27.912q2.956 0 3.792 0.996t0.996 3.792q-18.248 44.288-26.94 50.996-268.672 99.176-633.568 246.444zM1390.18 1370.216h-1.876q-137.692-32.744-195.396-65.492-46.164-26.94-46.164-78.024 0.996-8.584 0.996-17.36 14.496 24.96 65.492 54.876 19.328 10.576 106.824 41.332 77.032 26.94 95.28 31.728 0.996-2.956 0.996-5.788 0-8.584-5.372-16.912t-16.372-16.912-26.54-18.248q-39.456-13.416-104.944-44.288-43.304-26.036-43.304-46.164 0-13.416 28.936-33.724 68.444-42.408 142.524-42.408 63.616 0 63.616 27.912 0 8.584-5.788 15.364-21.204 20.156-27.912 20.156 0-29.792-50.088-29.792-60.66 0-101.172 15.364-10.576 4.832-10.576 9.664 0 7.784 33.724 26.94 24.144 14.496 63.076 28.452t46.704 18.788q46.164 24.144 46.164 58.784 0 24.144-27.912 48.092-10.576 9.664-18.248 13.416t-12.572 3.792zM732.532 1748.64q0 26.036-22.148 59.664t-54.876 57.704q-14.496 9.664-19.328 9.664 0-0.996 3.792-5.372t9.664-10.176q55.828-61.66 55.828-82.812 0-19.328-17.36-19.328-11.54 0-18.788 4.292t-12.080 4.292l3.792-7.784q7.784-47.24 43.304-47.24 27.912 0 27.912 36.516zM1236.128 3085.048q-5.788-1.876-5.788-16.372 0-22.148-26.94-90.448-9.664-23.080-16.912-38.112t-12.572-22.548-8.18-7.784q-8.584 0-11 4.832t-12.972 4.832q-5.788 0-13.956-3.792t-17.76-13.416q-19.328-18.248-19.328-28.936 0-1.876 3.792-10.176t12.572-22.548q16.372-26.94 21.204-26.94 80.816 0 116.488 180.1l1.876 0.996 4.832-10.576q5.788-45.296 30.868-135.816 12.572-31.728 27.376-47.692t29.332-15.832q18.248 0 33.724 20.156t15.364 32.744q0 4.832-1.396 10.576t-3.392 12.572q-3.792 10.576-8.18 15.364t-7.248 4.832q-3.792 0-16.372-14.968t-24.144-14.968q-10.576 0-19.328 14.968t-17.36 44.824-17.36 74.076q-16.372 100.112-37.576 100.112zM1838.892 2876.092q-50.088 0-50.088-83.74 0-101.992 58.784-213.716 15.364-26.94 18.248-26.94 0 5.788-8.584 31.728-36.516 116.488-36.516 163.728 0 63.616 32.744 63.616 4.832 0 10.176-3.792t11-9.664 11.54-14.496 13.416-22.148q2.956-3.792 5.788-6.708 0.996 0 0.996 8.584-10.576 56.872-26.94 85.208t-40.508 28.452zM1560.592 3579.984q0-0.996-0.996-0.996l12.572-15.364q31.728-35.7 47.692-58.244t15.832-33.284q0-22.148-21.204-22.148-10.576 0-18.788 5.372t-9.124 5.372q-0.996-0.996-2.956-1.876l1.876-7.784q7.784-50.996 48.092-50.996 29.792 0 29.792 39.456 0 27.912-23.080 64.952t-62.536 64.056q-13.416 11.54-17.36 11.54zM2280.956 3644.396q0-0.996-0.996-0.996 0-3.792 15.364-20.156 78.024-82.812 78.024-111.656 0-26.036-24.96-26.036-22.148 0-35.7 13.416-0.996-1.876-2.956-2.956l1.876-8.584q10.576-63.616 58.784-63.616 36.516 0 36.516 48.092 0 34.624-28.452 79.988t-76.492 78.908q-17.36 13.416-21.204 13.416zM2576.468 3576.112q-21.204 0-31.328-18.788t-10.176-54.476q0-87.604 49.12-184.932 13.416-24.96 16.372-24.96 0 5.788-6.708 28.936-32.744 101.172-32.744 140.648 0 27.912 6.708 42.408t21.204 14.496q8.584 0 18.248-11.54t22.148-32.744l3.792-5.788q1.876 1.876 2.956 3.792l-0.996 3.792q-18.248 99.176-58.784 99.176zM2174.008 3143.828q-26.036 0-26.036-31.728 0-6.708 1.876-15.364t5.788-19.328q24.96-63.616 90.448-119.44 13.416-12.572 17.36-12.572-0.996 3.792-13.416 17.36-69.244 87.604-69.244 122.324 0 20.156 15.364 20.156 13.416 0 36.516-20.156 3.792-2.956 4.832-2.956 0.996 0.996 0.996 2.956-38.512 58.784-64.456 58.784zM2855.672 3455.712q-4.832 0-4.832-11.54 0-18.248-21.204-72.2t-29.792-53.952q-7.784 0-8.584 3.392t-10.576 3.392-24.144-13.416q-7.784-7.784-11.54-13.416t-3.792-9.664q0-2.956 12.572-24.96 3.792-4.832 6.188-9.664t4.292-7.248 3.392-4.292 2.416-1.876q30.868 0 57.272 40.508t35.16 103.068h1.876q0.996 0 1.396-1.396t0.54-5.372q5.788-35.7 26.036-106.824 20.156-52.072 47.24-52.072 11.54 0 24.144 16.372 4.832 5.788 7.248 10.176t3.792 8.18 1.396 6.708q0 6.708-3.792 21.744t-11.54 14.968q-1.876 0-5.372-3.792t-8.18-9.664q-7.784-11.54-17.36-11.54-24.96 0-42.408 105.96-15.364 78.908-31.728 78.908zM3104.148 2981.976q0-0.996 2.416-5.372t8.18-11q31.728-34.624 47.692-57.272t15.832-35.16q0-22.148-20.156-22.148-10.576 0-16.372 4.292l-7.784 5.788t-5.788 1.396l-1.876-1.876q7.784-58.784 50.088-58.784 31.728 0 31.728 38.512 0 29.792-24.544 66.848t-63.076 64.056q-14.496 10.576-16.372 10.576zM3039.656 950.432q-29.792 0-29.792-31.728 0-26.94 27.912-65.492 23.080-33.724 42.408-47.24 5.788 0 5.788 2.956t-1.876 5.788q-16.372 13.416-32.744 39.456-8.584 12.572-12.080 21.744t-3.392 15.832q5.788-5.788 17.36-5.788 24.96 0 24.96 21.204 0 19.328-12.972 31.328t-25.496 12.080zM3146.56 2669.016q-35.7 0-35.7-60.66 0-85.616 54.876-178.196l1.876 0.996q0 4.832-7.784 23.080-26.94 85.616-26.94 120.328 0 10.576 1.876 19.756t4.832 14.968 7.784 8.584 10.576 2.956q14.496 0 32.744-36.516l5.788-5.788v6.708q-16.372 83.74-50.088 83.74zM3026.084 1733.092q-48.092 0-48.092-91.528 0-26.036 4.832-54.876 4.832-21.204 37.576-125.116 21.204-61.66 21.204-145.472l-0.996-44.288q-4.832-115.54-101.172-212.848-4.832-3.792-4.832-8.584 0-2.956 26.036-49.12l1.876-3.792q5.788 0 7.784 3.792 59.664 57.704 79.988 106.824 24.144 60.66 24.144 172.312 0 72.2-33.724 176.608t-33.724 147.868q0 30.868 8.584 46.164t26.036 15.364q4.832 0 10.576-2.956t11-8.584 12.080-15.364 12.572-21.204q5.788-9.664 6.708-9.664v10.576q-20.156 113.544-68.444 113.544zM2529.224 2425.512q-45.296 0-45.296-43.304 0-28.936 36.516-89.596 18.248-29.792 32.744-45.296t27.912-15.364q21.204 0 37.576 19.328t16.372 49.12q0 42.408-30.868 83.74t-75.156 41.332zM2443.608 2622.856q8.584-33.724 27.912-72.2 150.26-52.88 329.332-117.536 9.664-2.956 13.416-2.956 2.956 0 2.956 2.956 0 4.832-2.956 10.576-14.496 33.724-23.080 40.508-150.26 52.88-347.584 138.688zM2520.64 2935.816q-0.996 0-1.396-0.996t-1.396-3.792l5.788-31.728q1.876-15.364 48.092-49.12-55.828-20.156-55.828-52.072 0-33.724 28.936-70.324 57.704-68.444 96.36-68.444 33.724 0 33.724 39.456 0 21.204-18.248 50.088-1.876 3.792-3.792 3.792t-4.832-4.832q-11.54-22.148-27.912-22.148-15.364 0-33.724 12.972t-18.248 23.62q0 11.54 23.080 23.62t36.516 12.080 46.164-18.248q15.364-11.54 31.728-20.156 24.96-18.248 35.7-18.248 2.956 0.996 2.956 5.788-10.576 45.296-22.148 53.952-105.96 65.492-201.304 134.736zM2685.256 2241.528q-3.792 0-3.792-0.996 0-2.956 3.792-6.188t11.54-8.18 18.248-12.080 24.144-14.968l152.188-88.572q53.952-33.724 94.788-64.952t68.844-59.268q-72.2-37.576-72.2-78.908 0-50.088 46.164-91.528 35.7-32.744 61.66-32.744 20.156 0 30.868 13.956t10.576 42.904q0 41.332-19.328 93.404 19.328 10.576 30.328 19.328t15.832 16.372q0 19.328-32.744 67.368-8.584-15.364-44.288-35.7-40.508 55.828-103.068 101.992-34.624 26.036-67.908 45.696t-62.060 32.208q-13.416 7.784-137.692 52.88-19.328 7.784-26.036 7.784zM1305.568 2135.704q-70.324-52.88-124.272-85.616l-1.876-3.792q55.828-117.536 60.66-117.536 8.584 0 58.244 33.724t64.952 48.092q44.288-90.448 50.088-90.448 3.792 0 20.664 10.176t46.704 30.328q58.784 40.508 58.784 47.24 0 26.94-52.072 111.656-4.832 5.788-7.784 5.788-3.792 0-3.792-0.996-52.88-37.576-118.364-79.988-38.512 91.528-52.072 91.528z" fill="#ffffff"></path>
</svg>
