<?xml version="1.0" encoding="iso-8859-1"?>
<!DOCTYPE svg PUBLIC "-//W3C//DTD SVG 1.1//EN" "http://www.w3.org/Graphics/SVG/1.1/DTD/svg11.dtd">
<svg fill="#000000" height="800px" width="800px" version="1.1" id="Capa_1" xmlns="http://www.w3.org/2000/svg" xmlns:xlink="http://www.w3.org/1999/xlink" 
	 viewBox="0 0 473.655 473.655" xml:space="preserve">
<g fill="white">
	<path d="M226.518,151.253c0,12.144,9.88,22.024,22.024,22.024s22.024-9.88,22.024-22.024s-9.88-22.024-22.024-22.024
		S226.518,139.109,226.518,151.253z M248.542,144.228c3.873,0,7.024,3.151,7.024,7.024c0,3.873-3.151,7.024-7.024,7.024
		s-7.024-3.151-7.024-7.024C241.518,147.38,244.669,144.228,248.542,144.228z"

		/>
	<path d="M130.652,172.578c2.471,0.905,5.032,1.355,7.587,1.355c3.157,0,6.305-0.688,9.255-2.056
		c5.337-2.475,9.391-6.881,11.414-12.405c4.176-11.403-1.703-24.078-13.107-28.255c-11.401-4.175-24.078,1.702-28.256,13.106
		C113.369,155.726,119.248,168.402,130.652,172.578z M131.631,149.482c1.041-2.843,3.737-4.609,6.603-4.609
		c0.801,0,1.614,0.138,2.408,0.429c3.638,1.332,5.513,5.375,4.181,9.012c-1.332,3.637-5.372,5.512-9.012,4.18
		C132.174,157.161,130.298,153.119,131.631,149.482z"/>
	<path d="M468.951,239.323L398.127,107.65c-10.31-19.177-34.308-26.389-53.502-16.077l-52.571,28.286l-39.417-25.725
		c-2.49-1.626-5.706-1.626-8.198,0l-51.102,33.354c-10.877-9.829-23.649-17.576-37.83-22.769
		C95.6,82.775,29.008,113.663,7.064,173.571c-21.941,59.908,8.946,126.499,68.854,148.441c12.979,4.754,26.437,7.12,39.86,7.12
		c16.588,0,33.123-3.615,48.62-10.803c2.611-1.211,5.163-2.511,7.654-3.894v64.849c0,4.142,3.357,7.5,7.5,7.5h137.978
		c4.143,0,7.5-3.358,7.5-7.5v-99.918l15.584,28.977c5,9.295,13.319,16.086,23.424,19.122c3.76,1.13,7.598,1.689,11.416,1.689
		c6.444,0,12.828-1.595,18.66-4.734l58.761-31.598C472.051,282.501,479.263,258.502,468.951,239.323z M158.088,304.722
		c-24.403,11.319-51.751,12.457-77.011,3.206C28.936,288.83,2.052,230.872,21.149,178.73c14.928-40.755,53.59-66.076,94.665-66.076
		c11.477,0,23.146,1.979,34.534,6.149c25.258,9.251,45.402,27.785,56.721,52.187c11.318,24.402,12.457,51.752,3.206,77.01
		c-0.001,0-0.001,0-0.001,0C201.023,273.259,182.49,293.403,158.088,304.722z M310.031,371.785H187.054v-67.279
		c16.864-13.149,29.769-30.767,37.307-51.346l-0.001,0c10.63-29.021,9.322-60.444-3.683-88.481
		c-4.443-9.578-10.071-18.369-16.711-26.217l44.572-29.092l61.493,40.133V371.785z M445.77,279.613l-58.761,31.598
		c-5.763,3.101-12.387,3.772-18.653,1.889c-6.268-1.883-11.428-6.096-14.529-11.862l-28.795-53.541v-85.866
		c2.741,1.227,5.775,1.916,8.968,1.916c12.145,0,22.024-9.88,22.024-22.024s-9.88-22.024-22.024-22.024
		c-9.36,0-17.369,5.871-20.552,14.121l-7.087-4.625l45.369-24.411c11.907-6.397,26.794-1.923,33.188,9.97l70.824,131.673
		C462.136,258.324,457.662,273.212,445.77,279.613z M326.975,141.723c0-3.873,3.151-7.024,7.024-7.024s7.024,3.151,7.024,7.024
		c0,3.873-3.151,7.024-7.024,7.024S326.975,145.596,326.975,141.723z"/>
	<path d="M373.031,164.895c-1.962-3.648-6.511-5.015-10.158-3.052c-3.647,1.962-5.015,6.51-3.053,10.158l41.619,77.378
		c1.354,2.518,3.94,3.949,6.612,3.949c1.199,0,2.416-0.288,3.546-0.896c3.647-1.962,5.015-6.51,3.053-10.158L373.031,164.895z"/>
	<path d="M343.949,180.208c-1.963-3.648-6.511-5.014-10.158-3.052c-3.647,1.962-5.015,6.51-3.053,10.158l41.62,77.378
		c1.354,2.518,3.94,3.949,6.612,3.949c1.199,0,2.416-0.288,3.546-0.896c3.647-1.962,5.015-6.51,3.053-10.158L343.949,180.208z"/>
	<path d="M77.104,194.485l80.278,29.404c0.851,0.312,1.722,0.459,2.578,0.459c3.058,0,5.931-1.884,7.043-4.923
		c1.425-3.889-0.573-8.197-4.463-9.622L82.263,180.4c-3.889-1.425-8.197,0.574-9.621,4.463
		C71.217,188.753,73.215,193.06,77.104,194.485z"/>
	<path d="M165.793,244.54L57.345,204.818c-3.89-1.425-8.198,0.574-9.621,4.463c-1.425,3.89,0.573,8.198,4.463,9.622l108.448,39.722
		c0.851,0.312,1.722,0.459,2.578,0.459c3.058,0,5.931-1.884,7.043-4.922C171.681,250.272,169.683,245.964,165.793,244.54z"/>
</g>
</svg>