<svg xmlns="http://www.w3.org/2000/svg"
     viewBox="0 0 200 200"
     version="1.1"
     width="200"
     height="200"
>
  <g transform="translate(20,-50)">
    <g transform="matrix(0.26458333,0,0,0.26458333,-22.488623,56.258526)" id="flowRoot817">
      <path d="m 493.55663,194.07327 -24.12109,44.53125 -50.09766,-26.59505 23.19336,-44.222 z m -71.1263,27.83203 -23.5026,44.8405 -50.09766,-25.97657 22.88412,-44.84049 z m 107.30794,303.67838 q 0,61.23047 -58.75651,93.39192 -52.88086,28.75977 -140.39713,28.75977 -68.96158,0 -106.68945,-24.73958 -40.82031,-26.9043 -40.82031,-79.78516 0,-36.49088 11.7513,-76.6927 10.82357,-37.10938 30.92448,-74.21875 l 12.98828,5.5664 q -8.9681,21.64714 -15.15299,38.34636 -8.34961,22.88411 -12.06055,39.27408 -4.63867,20.7194 -4.63867,40.20183 0,40.20182 34.01692,59.37499 31.54297,17.62696 93.08268,17.62696 65.86914,0 115.34831,-21.64714 57.21028,-25.04883 57.21028,-67.72461 0,-15.77148 -1.23698,-22.57486 -0.92773,-7.11263 -3.71093,-14.22526 -11.75131,5.5664 -23.81185,8.96809 -11.7513,3.09245 -23.81185,3.09245 -27.21354,0 -44.222,-12.36979 -20.7194,-14.84375 -20.7194,-44.84049 0,-34.94466 17.93619,-66.79688 20.10091,-35.87239 47.6237,-35.87239 36.18164,0 57.21028,49.47917 17.9362,42.05729 17.9362,97.4121 z M 480.56835,410.85386 q -8.04036,-19.17317 -11.44206,-23.81184 -8.65885,-12.67904 -21.64713,-12.67904 -14.84375,0 -21.95638,7.11263 -6.80339,7.11263 -6.80339,17.9362 0,9.58659 8.9681,15.15299 8.9681,5.56641 20.41016,5.56641 8.04036,0 14.84375,-2.16472 7.11263,-2.47395 17.62695,-7.11263 z"
            fill="#57D798"/>
    </g>
  </g>
</svg>
