<svg xmlns="http://www.w3.org/2000/svg" data-name="Layer 1" viewBox="0 0 120 120"><path fill="#141414" fill-rule="evenodd" d="M94,120H26A25.9482,25.9482,0,0,1,0,94V26A25.9482,25.9482,0,0,1,26,0H94a25.9482,25.9482,0,0,1,26,26V94A25.9482,25.9482,0,0,1,94,120Z"/><path fill="#8bbcc9" d="M59.67726,39.29018c-12.38708,0-23.9273-3.1604-32.493-8.89938-.4303-.28839.61432-1.84662,1.0437-1.55823,8.26081,5.53391,19.42932,8.5817,31.44928,8.5817s23.18848-3.04779,31.44928-8.5817c.42938-.28885,1.474,1.26984,1.0437,1.55823C83.60457,36.12978,72.06435,39.29018,59.67726,39.29018Z"/><path fill="#8bbcc9" d="M59.67726,14.91427a45.00046,45.00046,0,1,0,45,45.00046A45.05077,45.05077,0,0,0,59.67726,14.91427ZM91.35108,89.14168a50.47038,50.47038,0,0,0-13.1614-5.86241,83.39313,83.39313,0,0,0,3.14484-22.427h21.44394A42.95,42.95,0,0,1,91.35108,89.14168Zm-74.775-28.28945H38.02a83.39314,83.39314,0,0,0,3.14483,22.427,50.47016,50.47016,0,0,0-13.16139,5.86241A42.9505,42.9505,0,0,1,16.57607,60.85223ZM60.61476,16.84157C70.95238,17.8974,79.23625,36.31243,79.46,58.97723H60.61476Zm-1.875,42.13566H39.89449c.22379-22.6648,8.50765-41.07983,18.84527-42.13566Zm-18.84527,1.875H58.73976v19.8924a67.01066,67.01066,0,0,0-15.82735,2.0553A83.0565,83.0565,0,0,1,39.89449,60.85223Zm18.84527,21.3874v20.74825c-6.38929-.6526-11.99461-7.936-15.39842-18.756A65.5394,65.5394,0,0,1,58.73976,82.23963Zm1.875,0a65.53948,65.53948,0,0,1,15.39843,1.99225c-3.40382,10.82-9.00913,18.1034-15.39843,18.756Zm0-1.495V60.85223H79.46a83.05609,83.05609,0,0,1-3.01792,21.9477A67.01066,67.01066,0,0,0,60.61476,80.74463Zm42.1637-21.7674H81.33452c-.19135-19.27592-6.24367-35.60435-14.6018-41.60025A43.18287,43.18287,0,0,1,102.77846,58.97723ZM52.62181,17.377C44.26367,23.37288,38.21135,39.70131,38.02,58.97723H16.57607A43.18287,43.18287,0,0,1,52.62181,17.377ZM29.05459,90.24409a49.16363,49.16363,0,0,1,12.55119-5.53757c2.6108,8.18029,6.47312,14.487,11.016,17.746A43.054,43.054,0,0,1,29.05459,90.24409Zm37.67813,12.20838c4.5429-3.25893,8.40522-9.56566,11.016-17.746a49.1637,49.1637,0,0,1,12.5512,5.53757A43.054,43.054,0,0,1,66.73272,102.45247Z"/><path fill="#fff" d="M49.03433,21.47719h-33.75a7.50008,7.50008,0,0,0-7.5,7.5v20.625a7.50008,7.50008,0,0,0,7.5,7.5h3.75v6.88248a1.875,1.875,0,0,0,3.16647,1.35944l8.67565-8.24192H49.03433a7.5,7.5,0,0,0,7.5-7.5v-20.625A7.5,7.5,0,0,0,49.03433,21.47719Z"/><path fill="#282829" d="M38.1935,47.56884a1.40628,1.40628,0,0,1-1.31378-.90546l-4.693-12.30606L27.437,46.66842a1.40625,1.40625,0,0,1-2.6239-1.01258l5.82-15.08468a1.40635,1.40635,0,0,1,1.31195-.9h.49622a1.40641,1.40641,0,0,1,1.31378.905l5.75226,15.08469a1.40784,1.40784,0,0,1-1.31378,1.908Z"/><path fill="#282829" d="M36.41371,42.97015H28.445a1.40259,1.40259,0,0,1,0-2.80518h7.96875a1.40259,1.40259,0,0,1,0,2.80518Z"/><path fill="#30adc6" d="M70.60606,62.72715h33.75a7.50008,7.50008,0,0,1,7.5,7.5v20.625a7.50008,7.50008,0,0,1-7.5,7.5h-3.75v6.88248a1.875,1.875,0,0,1-3.16647,1.35945l-8.67565-8.24193H70.60606a7.5,7.5,0,0,1-7.5-7.5v-20.625A7.5,7.5,0,0,1,70.60606,62.72715Z"/><path fill="#fff" d="M86.06734 73.655a1.40614 1.40614 0 0 0 2.53235-1.22314l-.90546-1.875A1.40614 1.40614 0 1 0 85.16188 71.78zM95.42769 87.41671a12.56426 12.56426 0 0 1-5.61951-2.1508 15.46062 15.46062 0 0 0 3.63694-7.06627h1.65115a1.40625 1.40625 0 0 0 0-2.8125H79.86556a1.40625 1.40625 0 0 0 0 2.8125H81.9232a15.3254 15.3254 0 0 0 3.50968 6.93054c.04246.048.09023.09.13326.13744a12.631 12.631 0 0 1-6.05856 2.19487 1.40618 1.40618 0 0 0 .12085 2.807c.0412 0 .0824-.00183.12452-.00549a15.44743 15.44743 0 0 0 7.92932-3.0637 15.37592 15.37592 0 0 0 7.403 3.00785 1.37059 1.37059 0 0 0 .173.01053 1.40619 1.40619 0 0 0 .16937-2.802zM84.81925 78.19964h5.72633a12.63258 12.63258 0 0 1-2.85942 5.21919c-.04783-.0523-.10053-.09905-.14757-.15221A12.52575 12.52575 0 0 1 84.81925 78.19964z"/></svg>