<svg width="20" height="20" viewBox="0 0 20 20" fill="none" xmlns="http://www.w3.org/2000/svg">
<path d="M10.3105 4.75H16.75C16.9489 4.75 17.1397 4.82902 17.2803 4.96967C17.421 5.11032 17.5 5.30109 17.5 5.5V16C17.5 16.1989 17.421 16.3897 17.2803 16.5303C17.1397 16.671 16.9489 16.75 16.75 16.75H3.25C3.05109 16.75 2.86032 16.671 2.71967 16.5303C2.57902 16.3897 2.5 16.1989 2.5 16V4C2.5 3.80109 2.57902 3.61032 2.71967 3.46967C2.86032 3.32902 3.05109 3.25 3.25 3.25H8.8105L10.3105 4.75ZM4 4.75V15.25H16V6.25H9.6895L8.1895 4.75H4ZM10.75 10.75H13L10 13.75L7 10.75H9.25V7.75H10.75V10.75Z" fill="#525866"/>
</svg>
