<svg width="24" height="25" viewBox="0 0 24 25" fill="none" xmlns="http://www.w3.org/2000/svg">
<path d="M13.2 21.8V24.2H10.8V21.8H1.2C0.88174 21.8 0.576515 21.6735 0.351472 21.4485C0.126428 21.2234 0 20.9182 0 20.6V1.39995C0 1.08169 0.126428 0.77647 0.351472 0.551426C0.576515 0.326383 0.88174 0.199955 1.2 0.199955H8.4C9.0811 0.199146 9.75454 0.343662 10.3753 0.623851C10.9961 0.90404 11.55 1.31345 12 1.82475C12.45 1.31345 13.0039 0.90404 13.6247 0.623851C14.2455 0.343662 14.9189 0.199146 15.6 0.199955H22.8C23.1183 0.199955 23.4235 0.326383 23.6485 0.551426C23.8736 0.77647 24 1.08169 24 1.39995V20.6C24 20.9182 23.8736 21.2234 23.6485 21.4485C23.4235 21.6735 23.1183 21.8 22.8 21.8H13.2ZM21.6 19.4V2.59995H15.6C14.9635 2.59995 14.353 2.85281 13.9029 3.3029C13.4529 3.75299 13.2 4.36343 13.2 4.99995V19.4H21.6ZM10.8 19.4V4.99995C10.8 4.36343 10.5471 3.75299 10.0971 3.3029C9.64697 2.85281 9.03652 2.59995 8.4 2.59995H2.4V19.4H10.8Z" fill="#0E121B"/>
</svg>
