<svg width="32px" height="32px" viewBox="0 0 64 64" xmlns="http://www.w3.org/2000/svg" fill="#000000"><g id="SVGRepo_bgCarrier" stroke-width="0"></g><g id="SVGRepo_tracerCarrier" stroke-linecap="round" stroke-linejoin="round"></g><g id="SVGRepo_iconCarrier"> <title>open-quran</title> <g id="open-quran"> <circle cx="53.5" cy="10.5" r="2.5" style="fill:none;stroke:#4c241d;stroke-linecap:round;stroke-linejoin:round;stroke-width:2px"></circle> <circle cx="23.5" cy="26.5" r="21.5" style="fill:#e5efef"></circle> <line x1="13.837" y1="5.663" x2="10.163" y2="9.337" style="fill:none;stroke:#4c241d;stroke-linecap:round;stroke-linejoin:round;stroke-width:2px"></line> <line x1="10.163" y1="5.663" x2="13.837" y2="9.337" style="fill:none;stroke:#4c241d;stroke-linecap:round;stroke-linejoin:round;stroke-width:2px"></line> <circle cx="8" cy="13" r="1" style="fill:#4c241d"></circle> <rect x="7" y="23" width="54" height="34" style="fill:#6b4f5b;stroke:#4c241d;stroke-linecap:round;stroke-linejoin:round;stroke-width:2px"></rect> <path d="M34,55.685V22.8s7.76-7.893,21.987-5.262V50.423S43.053,49.107,34,55.685Z" style="fill:#ffffff;stroke:#4c241d;stroke-linecap:round;stroke-linejoin:round;stroke-width:2px"></path> <path d="M39,27.483A25.91,25.91,0,0,1,49.916,25" style="fill:#ffffff;stroke:#b5a19c;stroke-linecap:round;stroke-linejoin:round;stroke-width:2px"></path> <path d="M39,31.483A25.91,25.91,0,0,1,49.916,29" style="fill:#ffffff;stroke:#b5a19c;stroke-linecap:round;stroke-linejoin:round;stroke-width:2px"></path> <path d="M39,35.483A25.91,25.91,0,0,1,49.916,33" style="fill:#ffffff;stroke:#b5a19c;stroke-linecap:round;stroke-linejoin:round;stroke-width:2px"></path> <path d="M34,55.685V22.8s-7.765-7.893-22-5.262V50.423S24.941,49.107,34,55.685Z" style="fill:#ffffff;stroke:#4c241d;stroke-linecap:round;stroke-linejoin:round;stroke-width:2px"></path> <line x1="30" y1="12" x2="27" y2="9" style="fill:none;stroke:#ffce56;stroke-linecap:round;stroke-linejoin:round;stroke-width:2px"></line> <line x1="38" y1="12" x2="41" y2="9" style="fill:none;stroke:#ffce56;stroke-linecap:round;stroke-linejoin:round;stroke-width:2px"></line> <line x1="34" y1="12" x2="34" y2="8" style="fill:none;stroke:#ffce56;stroke-linecap:round;stroke-linejoin:round;stroke-width:2px"></line> <path d="M28.916,27.483A25.9,25.9,0,0,0,18,25" style="fill:#ffffff;stroke:#b5a19c;stroke-linecap:round;stroke-linejoin:round;stroke-width:2px"></path> <path d="M28.916,31.483A25.9,25.9,0,0,0,18,29" style="fill:#ffffff;stroke:#b5a19c;stroke-linecap:round;stroke-linejoin:round;stroke-width:2px"></path> <path d="M28.916,35.483A25.9,25.9,0,0,0,18,33" style="fill:#ffffff;stroke:#b5a19c;stroke-linecap:round;stroke-linejoin:round;stroke-width:2px"></path> </g> </g></svg>