<svg width="32px" height="32px" viewBox="0 0 48 48" fill="none" xmlns="http://www.w3.org/2000/svg" stroke="#212121"><g > <g id="read"> <g id="read_2"> <path id="Combined Shape" fill-rule="evenodd" clip-rule="evenodd" d="M24.9972 28.2812L24.9965 18.352L38.1431 14.8285C38.6765 14.6855 38.9931 14.1372 38.8501 13.6037C38.7071 13.0702 38.1588 12.7537 37.6253 12.8967L24.9964 16.2814L24.996 11.1647C24.996 10.7116 25.2998 10.3157 25.7366 10.1988L41.2885 6.03679C41.7683 5.90815 42.03 6.09972 42.03 6.53478V35.9568C42.03 36.6026 41.4432 37.3467 40.771 37.5269L24.2434 41.9508C24.0203 42.0134 23.9644 42.0129 23.7675 41.9561L7.25912 37.5269C6.58683 37.3467 6 36.6026 6 35.9568V6.53478C6 6.09972 6.26169 5.90815 6.74103 6.03667L19.6608 9.5046C20.1942 9.64777 20.7426 9.33143 20.8858 8.79803C21.029 8.26463 20.7126 7.71615 20.1792 7.57297L7.25924 4.10497C5.5304 3.64144 4 4.76176 4 6.53478V35.9568C4 37.5189 5.20508 39.0469 6.74103 39.4587L23.2309 43.8826C23.7643 44.0369 24.1996 44.0404 24.7723 43.8796L41.2886 39.4588C42.8249 39.0469 44.03 37.5189 44.03 35.9568V6.53478C44.03 4.76176 42.4996 3.64144 40.771 4.1049L25.2195 8.26678C23.9078 8.61795 22.996 9.80638 22.996 11.1648L22.9964 16.8174L21.6933 17.1667C21.1599 17.3096 20.8433 17.858 20.9863 18.3915C21.1293 18.9249 21.6776 19.2415 22.2111 19.0985L22.9966 18.888L22.9973 28.8172L21.6933 29.1667C21.1599 29.3096 20.8433 29.858 20.9863 30.3915C21.1293 30.9249 21.6776 31.2415 22.2111 31.0985L22.9974 30.8877L22.998 38.9189C22.998 39.4711 23.4458 39.9188 23.9981 39.9188C24.5504 39.9187 24.998 39.471 24.998 38.9187L24.9974 30.3517L38.1431 26.8285C38.6765 26.6855 38.9931 26.1372 38.8501 25.6037C38.7071 25.0702 38.1588 24.7537 37.6253 24.8967L24.9972 28.2812ZM28.3215 23.4194L38.2215 20.8294C38.7558 20.6896 39.0756 20.1432 38.9358 19.6089C38.7961 19.0746 38.2496 18.7548 37.7153 18.8945L27.8153 21.4845C27.281 21.6243 26.9612 22.1708 27.101 22.7051C27.2407 23.2394 27.7872 23.5592 28.3215 23.4194ZM31.1734 34.6965L28.2774 35.4725C27.744 35.6155 27.1956 35.2989 27.0527 34.7654C26.9097 34.2319 27.2263 33.6836 27.7598 33.5407L30.6558 32.7647C31.1892 32.6217 31.7376 32.9383 31.8805 33.4718C32.0235 34.0052 31.7069 34.5536 31.1734 34.6965Z" fill="#000000"></path> </g> </g> </g></svg>