<svg width="32px" height="32px" viewBox="0 0 512 512" id="svg2793" style="fill-rule:evenodd;clip-rule:evenodd;stroke-linejoin:round;stroke-miterlimit:2;" version="1.1" xml:space="preserve" xmlns="http://www.w3.org/2000/svg" xmlns:cc="http://creativecommons.org/ns#" xmlns:dc="http://purl.org/dc/elements/1.1/" xmlns:rdf="http://www.w3.org/1999/02/22-rdf-syntax-ns#" xmlns:serif="http://www.serif.com/" xmlns:svg="http://www.w3.org/2000/svg" fill="#212121"><g >  <g style="display:inline" transform="translate(-4096,-3072)"> <g transform="translate(4578.72,3154.25)"> <path d="m 0,347.508 -37.075,-33.012 c -2.747,-2.446 -6.297,-3.797 -9.975,-3.797 H -331.51 V 68.919 H 0 Z M -406.39,223.339 c -3.677,0 -7.227,1.352 -9.974,3.797 l -37.075,33.012 V -18.441 h 331.509 v 57.36 h -224.58 c -8.284,0 -15,6.716 -15,15 v 169.42 z M 15,38.919 H -91.93 v -72.36 c 0,-8.284 -6.716,-15 -15,-15 h -361.509 c -8.285,0 -15,6.716 -15,15 v 327.03 c 0,5.909 3.469,11.268 8.861,13.686 1.969,0.883 4.059,1.315 6.136,1.315 3.61,-10e-4 7.175,-1.304 9.977,-3.798 l 57.785,-51.453 h 39.17 v 72.36 c 0,8.284 6.716,15 15,15 h 293.75 l 57.785,51.453 c 2.802,2.495 6.368,3.797 9.978,3.797 2.076,0 4.168,-0.431 6.136,-1.314 C 26.53,392.216 30,386.858 30,380.949 V 53.919 c 0,-8.284 -6.716,-15 -15,-15" id="path2325" style="fill-rule:nonzero"></path> </g> <g id="g2331" transform="translate(4344.48,3284.33)"> <path d="m 0,0 c 0,8.284 6.716,15 15,15 h 154.66 c 8.284,0 15,-6.716 15,-15 0,-8.284 -6.716,-15 -15,-15 H 15 C 6.716,-15 0,-8.284 0,0" id="path2329" style="fill-rule:nonzero"></path> </g> <g id="g2335" transform="translate(4478.55,3357.22)"> <path d="m 0,-30 h -119.069 c -8.285,0 -15,6.716 -15,15 0,8.284 6.715,15 15,15 H 0 C 8.284,0 15,-6.716 15,-15 15,-23.284 8.284,-30 0,-30" id="path2333" style="fill-rule:nonzero"></path> </g> <g id="g2339" transform="translate(4436.81,3415.12)"> <path d="m 0,-30 h -77.33 c -8.284,0 -15,6.716 -15,15 0,8.284 6.716,15 15,15 H 0 C 8.284,0 15,-6.716 15,-15 15,-23.284 8.284,-30 0,-30" id="path2337" style="fill-rule:nonzero"></path> </g> <g id="g2343" transform="matrix(-1,0,0,1,4311.79,3299.32)"> <path d="m 0,-29.99 c 8.28,0 15,6.71 15,15 C 15,-6.71 8.28,0 0,0 c -8.29,0 -15,-6.71 -15,-14.99 0,-8.29 6.71,-15 15,-15" id="path2341" style="fill-rule:nonzero"></path> </g> <g id="g2347" transform="matrix(-1,0,0,1,4311.79,3413.33)"> <path d="m 0,-30.01 c 8.28,0 15,6.72 15,15.01 0,8.28 -6.72,15 -15,15 -8.29,0 -15,-6.72 -15,-15 0,-8.29 6.71,-15.01 15,-15.01" id="path2345" style="fill-rule:nonzero"></path> </g> <g id="g2351" transform="matrix(-1,0,0,1,4311.79,3356.33)"> <path d="m 0,-30.01 c 8.28,0 15,6.72 15,15 C 15,-6.72 8.28,0 0,0 c -8.29,0 -15,-6.72 -15,-15.01 0,-8.28 6.71,-15 15,-15" id="path2349" style="fill-rule:nonzero"></path> </g> </g> </g></svg>