<svg width="32" height="32" viewBox="0 0 32 32" fill="none" xmlns="http://www.w3.org/2000/svg">
<path d="M7.6 19.6V22C7.59981 22.6055 7.82849 23.1887 8.2402 23.6327C8.6519 24.0766 9.21621 24.3486 9.82 24.394L10 24.4H13.6V26.8H10C8.72696 26.8 7.50606 26.2943 6.60589 25.3941C5.70571 24.4939 5.2 23.273 5.2 22V19.6H7.6ZM23.2 13.6L28.48 26.8H25.894L24.4528 23.2H19.5448L18.106 26.8H15.5212L20.8 13.6H23.2ZM22 17.062L20.5036 20.8H23.494L22 17.062ZM11.2 4V6.4H16V14.8H11.2V18.4H8.8V14.8H4V6.4H8.8V4H11.2ZM22 5.2C23.273 5.2 24.4939 5.70571 25.3941 6.60589C26.2943 7.50606 26.8 8.72696 26.8 10V12.4H24.4V10C24.4 9.36348 24.1471 8.75303 23.6971 8.30294C23.247 7.85286 22.6365 7.6 22 7.6H18.4V5.2H22ZM8.8 8.8H6.4V12.4H8.8V8.8ZM13.6 8.8H11.2V12.4H13.6V8.8Z" fill="#0E121B"/>
</svg>
