<svg width="32" height="32" viewBox="0 0 32 32" fill="none" xmlns="http://www.w3.org/2000/svg">
<path d="M13.6 10.2639L9.52365 13.5999H5.20005V18.3999H9.52365L13.6 21.7359V10.2639ZM8.66685 20.7999H4.00005C3.68179 20.7999 3.37656 20.6735 3.15152 20.4484C2.92648 20.2234 2.80005 19.9181 2.80005 19.5999V12.3999C2.80005 12.0816 2.92648 11.7764 3.15152 11.5514C3.37656 11.3263 3.68179 11.1999 4.00005 11.1999H8.66685L15.0196 6.00148C15.1075 5.92942 15.2141 5.8838 15.3269 5.86995C15.4397 5.8561 15.5542 5.87458 15.6569 5.92324C15.7596 5.97189 15.8464 6.04873 15.9072 6.1448C15.9679 6.24087 16.0001 6.35221 16 6.46588V25.5339C16.0001 25.6475 15.9679 25.7589 15.9072 25.855C15.8464 25.951 15.7596 26.0279 15.6569 26.0765C15.5542 26.1252 15.4397 26.1437 15.3269 26.1298C15.2141 26.116 15.1075 26.0703 15.0196 25.9983L8.66805 20.7999H8.66685ZM24.8872 25.7607L23.188 24.0615C24.3256 23.0493 25.2357 21.8075 25.8583 20.4179C26.4809 19.0283 26.8019 17.5226 26.8 15.9999C26.8015 14.3992 26.4465 12.8183 25.7607 11.3719C25.0749 9.92559 24.0755 8.65016 22.8352 7.63828L24.5392 5.93428C26.0014 7.17213 27.1759 8.71406 27.9809 10.4525C28.7859 12.191 29.2019 14.0841 29.2001 15.9999C29.2001 19.8675 27.5368 23.3463 24.8872 25.7607ZM20.6356 21.5091L18.9292 19.8027C19.5118 19.3547 19.9835 18.7788 20.3079 18.1194C20.6323 17.4599 20.8007 16.7348 20.8 15.9999C20.8 14.2839 19.9 12.7779 18.544 11.9295L20.2708 10.2027C21.1798 10.8713 21.9186 11.7445 22.4275 12.7516C22.9363 13.7587 23.201 14.8715 23.2001 15.9999C23.2001 18.2103 22.2041 20.1879 20.6356 21.5091Z" fill="#0E121B"/>
</svg>
