<svg width="48" height="48" viewBox="0 0 48 48" fill="none" xmlns="http://www.w3.org/2000/svg">
<g clip-path="url(#clip0_681_1956)">
<path fill-rule="evenodd" clip-rule="evenodd" d="M24.0297 9.2813L22.4939 14.5549V14.548C22.29 15.238 21.3115 15.5112 20.7814 15.0262L16.7381 11.3033C16.6293 11.2008 16.5478 11.0779 16.5138 10.9344L14.645 3.85061C14.2849 2.49806 15.2634 1.04988 16.8332 0.612692L18.5729 0.127687C20.163 -0.316332 21.76 0.435085 22.1269 1.8013L24.0297 8.86461C24.0704 9.00123 24.0704 9.14468 24.0297 9.2813ZM17.7721 16.8022L16.2295 11.5354C16.1888 11.3988 16.114 11.2759 16.0121 11.1802L10.6096 6.27553C9.56313 5.32601 7.81668 5.55827 6.7226 6.79469L5.51979 8.14724C4.4325 9.37 4.39173 11.1187 5.41786 12.0614L10.7999 17.0071C10.9086 17.1027 11.0378 17.1711 11.1873 17.1984L16.5897 18.1342C17.2964 18.2572 17.9692 17.4921 17.7721 16.8022ZM10.8675 17.6698L14.9992 21.2629L15.006 21.2561C15.5428 21.7274 15.3865 22.7384 14.7274 23.0185L9.67828 25.1634C9.54237 25.2181 9.39287 25.2454 9.25016 25.2181L2.06049 23.9817C0.687789 23.7426 -0.209221 22.2534 0.0422138 20.6345L0.320831 18.8447C0.579061 17.2121 1.91778 16.0645 3.31086 16.2967L10.4937 17.4922C10.6297 17.5127 10.7588 17.5741 10.8675 17.6698ZM15.0725 26.516L9.66326 25.7373C9.52056 25.7168 9.37785 25.7373 9.24874 25.7919L2.56193 28.6951C1.26399 29.2553 0.754322 30.9494 1.42028 32.4659L2.14741 34.1258C2.80657 35.6218 4.36275 36.3937 5.64711 35.8404L12.3611 32.9714C12.497 32.9167 12.6057 32.8211 12.6941 32.6981L15.786 28.1487C16.187 27.5543 15.786 26.6185 15.0725 26.516ZM17.9632 30.9016L12.9957 33.1831C12.8666 33.2446 12.7579 33.3334 12.6763 33.4496L8.61259 39.5224C7.82431 40.6973 8.3 42.4051 9.67949 43.3204L11.1881 44.3246C12.5472 45.2263 14.2733 45.0282 15.0548 43.8669L19.1593 37.8078C19.2408 37.6848 19.2884 37.5482 19.2884 37.3979L19.4447 31.8852C19.4651 31.168 18.6156 30.601 17.9632 30.9016ZM27.6814 15.2313L31.8063 11.6313C31.915 11.5357 31.9965 11.4195 32.0373 11.2829L34.2323 4.3084C34.6604 2.95585 33.7226 1.45985 32.146 0.968015L30.42 0.435193C28.8638 -0.0498119 27.2669 0.633294 26.8387 1.97218L24.5962 8.94669C24.5486 9.08331 24.5486 9.23359 24.5894 9.37704L25.9825 14.7053C26.166 15.402 27.1377 15.7026 27.6746 15.2313H27.6814ZM37.0856 17.8337L31.6763 18.6193V18.6124C30.9696 18.7149 30.3104 17.9293 30.5347 17.2462L32.2268 12.0068C32.2675 11.8702 32.3559 11.7404 32.4646 11.6516L38.1049 6.99966C39.1854 6.11162 40.8979 6.40535 41.9444 7.65544L43.1064 9.04214C44.1665 10.3059 44.1529 12.0751 43.0656 12.9837L37.4661 17.6629C37.3574 17.7586 37.2283 17.8132 37.0856 17.8337ZM33.2166 23.6402L38.1841 25.9218C38.3132 25.9833 38.456 26.0038 38.5919 25.9901L45.8155 25.1021C47.2154 24.9313 48.1804 23.4489 47.9697 21.8095L47.7386 20.0061C47.528 18.3803 46.2436 17.2054 44.8641 17.3693L37.6201 18.2164C37.4774 18.23 37.3415 18.2915 37.226 18.3871L32.9855 21.8778C32.4283 22.3355 32.5642 23.3465 33.2166 23.647V23.6402ZM34.7696 33.3198L31.8135 28.702H31.8203C31.433 28.094 31.8679 27.1718 32.5814 27.0899L38.0314 26.4614C38.1742 26.4409 38.3237 26.4682 38.4528 26.5297L45.0037 29.754C46.254 30.3688 46.7025 32.056 46.0026 33.5384L45.2279 35.1778C44.5212 36.6738 42.9106 37.3911 41.6399 36.7763L35.0822 33.5999C34.9531 33.5384 34.8511 33.4428 34.7696 33.3198ZM27.9104 32.1995V37.6917C27.9104 37.8351 27.9512 37.9786 28.0259 38.0947L31.8314 44.3315C32.5722 45.5406 34.3118 45.8138 35.7049 44.9326L37.2407 43.9694C38.6202 43.1019 39.157 41.4419 38.4367 40.2397L34.6584 33.9688C34.5836 33.8458 34.4749 33.7433 34.339 33.6819L29.419 31.25C28.7734 30.9358 27.9104 31.4754 27.9104 32.1927V32.1995ZM19.7965 37.644L22.7457 33.0193H22.7525C23.1399 32.4182 24.1592 32.4319 24.5261 33.0466L27.3599 37.7669C27.4414 37.8967 27.4754 38.0402 27.4754 38.1836L27.2783 45.5133C27.2376 46.9137 25.8988 48.0203 24.2679 47.9998L22.4603 47.9725C20.8158 47.9452 19.4974 46.7771 19.5246 45.3562L19.6741 38.0402C19.6741 37.9035 19.7149 37.7669 19.7965 37.644Z" fill="black"/>
</g>
<defs>
<clipPath id="clip0_681_1956">
<rect width="48" height="48" fill="white"/>
</clipPath>
</defs>
</svg>
