<svg fill="none" height="13" viewBox="0 0 100 13" width="100" xmlns="http://www.w3.org/2000/svg" xmlns:xlink="http://www.w3.org/1999/xlink"><clipPath id="a"><path d="m0 0h100v13h-100z"/></clipPath><g clip-path="url(#a)" fill="#000"><path d="m12.5 2.69286h-4.75911v10.30714h-2.93772v-10.30714h-4.7444084v-2.69286h12.5000384z"/><path d="m15.5259 10.8179-1.0576 2.1821h-3.1581l6.3602-13h3.2902l6.5658 13h-3.1874l-1.1016-2.1821zm3.8337-7.73814-2.5705 5.12263h5.185z"/><path d="m32.5059 9.31667v3.68333h-2.9377v-13h8.2697c2.9377 0 4.8472 1.87262 4.8472 4.64286.0388.79722-.1277 1.59067-.482 2.29631-.3543.70563-.883 1.29719-1.5304 1.71202l2.2033 4.36431h-3.4077l-1.8802-3.68335zm5.2879-2.69286c1.0429 0 1.6892-.74285 1.6892-2.0119.0305-.24771.0089-.49946-.0633-.73739s-.1931-.45621-.3544-.63936c-.1612-.18314-.3586-.32667-.5784-.42039-.2197-.09372-.4564-.13534-.6931-.12191h-5.2879v3.93095z"/><path d="m56.6246 2.69286h-4.8179v10.30714h-2.9377v-10.30714h-4.7591v-2.69286h12.5147z"/><path d="m61.7362 5.01429h7.5352v2.67738h-7.5352v2.61543h8.9307v2.6929h-11.9272v-13h11.9272v2.69286h-8.9307z"/><path d="m77.0123 5.01429h7.55v2.67738h-7.55v2.61543h8.9307v2.6929h-11.9271v-13h11.9271v2.69286h-8.9307z"/><path d="m100 13h-10.6933v-13h2.9377v10.3071h7.6969z"/></g></svg>