<svg width="157" height="31" viewBox="0 0 157 31" fill="none" xmlns="http://www.w3.org/2000/svg">
<path fill-rule="evenodd" clip-rule="evenodd" d="M32.7138 9.75366C31.1764 11.2911 30.4203 12.0472 29.4626 12.0472C28.5049 12.0472 27.7488 11.2785 26.2114 9.75366L18.7512 2.2935C17.2138 0.768699 16.4451 0 15.5 0C14.5549 0 13.7862 0.768699 12.2488 2.2935L2.2935 12.2488C0.768699 13.7862 0 14.5549 0 15.5C0 16.4451 0.768699 17.2138 2.2935 18.7512L12.2488 28.7065C13.7862 30.2439 14.5423 31 15.5 31C16.4577 31 17.2138 30.2313 18.7512 28.7065L26.2114 21.2463C27.7488 19.7089 28.5049 18.9528 29.4626 18.9528C30.4077 18.9528 31.1764 19.7215 32.7138 21.2463L34.9695 23.502C36.5069 25.0394 37.263 25.7955 38.2207 25.7955C39.1785 25.7955 39.9346 25.0268 41.472 23.502L46.2228 18.7512C47.7602 17.2138 48.5163 16.4577 48.5163 15.5C48.5163 14.5423 47.7476 13.7862 46.2228 12.2488L41.472 7.49797C39.9346 5.96057 39.1785 5.20447 38.2207 5.20447C37.263 5.20447 36.5069 5.97317 34.9695 7.49797L32.7138 9.75366Z" fill="white"/>
<path fill-rule="evenodd" clip-rule="evenodd" d="M32.7138 9.75366C31.1764 11.2911 30.4203 12.0472 29.4626 12.0472C28.5049 12.0472 27.7488 11.2785 26.2114 9.75366L18.7512 2.2935C17.2138 0.768699 16.4451 0 15.5 0C14.5549 0 13.7862 0.768699 12.2488 2.2935L2.2935 12.2488C0.768699 13.7862 0 14.5549 0 15.5C0 16.4451 0.768699 17.2138 2.2935 18.7512L12.2488 28.7065C13.7862 30.2439 14.5423 31 15.5 31C16.4577 31 17.2138 30.2313 18.7512 28.7065L26.2114 21.2463C27.7488 19.7089 28.5049 18.9528 29.4626 18.9528C30.4077 18.9528 31.1764 19.7215 32.7138 21.2463L34.9695 23.502C36.5069 25.0394 37.263 25.7955 38.2207 25.7955C39.1785 25.7955 39.9346 25.0268 41.472 23.502L46.2228 18.7512C47.7602 17.2138 48.5163 16.4577 48.5163 15.5C48.5163 14.5423 47.7476 13.7862 46.2228 12.2488L41.472 7.49797C39.9346 5.96057 39.1785 5.20447 38.2207 5.20447C37.263 5.20447 36.5069 5.97317 34.9695 7.49797L32.7138 9.75366Z" fill="url(#paint0_linear_1086_815)"/>
<path fill-rule="evenodd" clip-rule="evenodd" d="M32.7138 9.75366C31.1764 11.2911 30.4203 12.0472 29.4626 12.0472C28.5049 12.0472 27.7488 11.2785 26.2114 9.75366L18.7512 2.2935C17.2138 0.768699 16.4451 0 15.5 0C14.5549 0 13.7862 0.768699 12.2488 2.2935L2.2935 12.2488C0.768699 13.7862 0 14.5549 0 15.5C0 16.4451 0.768699 17.2138 2.2935 18.7512L12.2488 28.7065C13.7862 30.2439 14.5423 31 15.5 31C16.4577 31 17.2138 30.2313 18.7512 28.7065L26.2114 21.2463C27.7488 19.7089 28.5049 18.9528 29.4626 18.9528C30.4077 18.9528 31.1764 19.7215 32.7138 21.2463L34.9695 23.502C36.5069 25.0394 37.263 25.7955 38.2207 25.7955C39.1785 25.7955 39.9346 25.0268 41.472 23.502L46.2228 18.7512C47.7602 17.2138 48.5163 16.4577 48.5163 15.5C48.5163 14.5423 47.7476 13.7862 46.2228 12.2488L41.472 7.49797C39.9346 5.96057 39.1785 5.20447 38.2207 5.20447C37.263 5.20447 36.5069 5.97317 34.9695 7.49797L32.7138 9.75366Z" fill="url(#paint1_radial_1086_815)" fill-opacity="0.8"/>
<path fill-rule="evenodd" clip-rule="evenodd" d="M32.7138 9.75366C31.1764 11.2911 30.4203 12.0472 29.4626 12.0472C28.5049 12.0472 27.7488 11.2785 26.2114 9.75366L18.7512 2.2935C17.2138 0.768699 16.4451 0 15.5 0C14.5549 0 13.7862 0.768699 12.2488 2.2935L2.2935 12.2488C0.768699 13.7862 0 14.5549 0 15.5C0 16.4451 0.768699 17.2138 2.2935 18.7512L12.2488 28.7065C13.7862 30.2439 14.5423 31 15.5 31C16.4577 31 17.2138 30.2313 18.7512 28.7065L26.2114 21.2463C27.7488 19.7089 28.5049 18.9528 29.4626 18.9528C30.4077 18.9528 31.1764 19.7215 32.7138 21.2463L34.9695 23.502C36.5069 25.0394 37.263 25.7955 38.2207 25.7955C39.1785 25.7955 39.9346 25.0268 41.472 23.502L46.2228 18.7512C47.7602 17.2138 48.5163 16.4577 48.5163 15.5C48.5163 14.5423 47.7476 13.7862 46.2228 12.2488L41.472 7.49797C39.9346 5.96057 39.1785 5.20447 38.2207 5.20447C37.263 5.20447 36.5069 5.97317 34.9695 7.49797L32.7138 9.75366Z" fill="url(#paint2_radial_1086_815)" fill-opacity="0.8"/>
<path fill-rule="evenodd" clip-rule="evenodd" d="M32.7138 9.75366C31.1764 11.2911 30.4203 12.0472 29.4626 12.0472C28.5049 12.0472 27.7488 11.2785 26.2114 9.75366L18.7512 2.2935C17.2138 0.768699 16.4451 0 15.5 0C14.5549 0 13.7862 0.768699 12.2488 2.2935L2.2935 12.2488C0.768699 13.7862 0 14.5549 0 15.5C0 16.4451 0.768699 17.2138 2.2935 18.7512L12.2488 28.7065C13.7862 30.2439 14.5423 31 15.5 31C16.4577 31 17.2138 30.2313 18.7512 28.7065L26.2114 21.2463C27.7488 19.7089 28.5049 18.9528 29.4626 18.9528C30.4077 18.9528 31.1764 19.7215 32.7138 21.2463L34.9695 23.502C36.5069 25.0394 37.263 25.7955 38.2207 25.7955C39.1785 25.7955 39.9346 25.0268 41.472 23.502L46.2228 18.7512C47.7602 17.2138 48.5163 16.4577 48.5163 15.5C48.5163 14.5423 47.7476 13.7862 46.2228 12.2488L41.472 7.49797C39.9346 5.96057 39.1785 5.20447 38.2207 5.20447C37.263 5.20447 36.5069 5.97317 34.9695 7.49797L32.7138 9.75366Z" fill="url(#paint3_radial_1086_815)" fill-opacity="0.8"/>
<g clip-path="url(#clip0_1086_815)">
<path d="M69.016 11.6929H64.2568V22H61.3191V11.6929H56.5747V9H69.0747L69.016 11.6929Z" fill="black"/>
<path d="M72.0418 19.8179L70.9842 22H67.8262L74.1863 9H77.4766L84.0424 22H80.855L79.7533 19.8179H72.0418ZM75.8755 12.0798L73.305 17.2024H78.4901L75.8755 12.0798Z" fill="black"/>
<path d="M89.0222 18.3167V22H86.0845V9H94.3542C97.2919 9 99.2014 10.8726 99.2014 13.6429C99.2402 14.4401 99.0737 15.2335 98.7194 15.9392C98.3652 16.6448 97.8364 17.2364 97.1891 17.6512L99.3923 22.0155H95.9846L94.1045 18.3321L89.0222 18.3167ZM94.3101 15.6238C95.353 15.6238 95.9993 14.881 95.9993 13.6119C96.0298 13.3642 96.0082 13.1125 95.936 12.8745C95.8639 12.6366 95.7429 12.4183 95.5817 12.2352C95.4204 12.052 95.223 11.9085 95.0032 11.8148C94.7835 11.7211 94.5468 11.6794 94.3101 11.6929H89.0222V15.6238H94.3101Z" fill="black"/>
<path d="M113.141 11.6929H108.323V22H105.385V11.6929H100.626V9H113.141V11.6929Z" fill="black"/>
<path d="M118.252 14.0143H125.788V16.6917H118.252V19.3071H127.183V22H115.256V9H127.183V11.6929H118.252V14.0143Z" fill="black"/>
<path d="M133.528 14.0143H141.078V16.6917H133.528V19.3071H142.459V22H130.532V9H142.459V11.6929H133.528V14.0143Z" fill="black"/>
<path d="M156.516 22H145.823V9H148.76V19.3071H156.457L156.516 22Z" fill="black"/>
</g>
<defs>
<linearGradient id="paint0_linear_1086_815" x1="30.4407" y1="-8.94695" x2="22.0781" y2="24.1203" gradientUnits="userSpaceOnUse">
<stop stop-color="#35F787"/>
<stop offset="0.3229" stop-color="#3CFF8B"/>
<stop offset="0.599" stop-color="#62D6F4"/>
<stop offset="0.9479" stop-color="#00A3FF"/>
</linearGradient>
<radialGradient id="paint1_radial_1086_815" cx="0" cy="0" r="1" gradientUnits="userSpaceOnUse" gradientTransform="translate(40.1719 9.57669) rotate(147.318) scale(39.6661 60.1018)">
<stop stop-color="#8FF087"/>
<stop offset="1" stop-color="#83EE41" stop-opacity="0"/>
</radialGradient>
<radialGradient id="paint2_radial_1086_815" cx="0" cy="0" r="1" gradientUnits="userSpaceOnUse" gradientTransform="translate(13.1141 0.00342409) rotate(22.3184) scale(35.4921 40.069)">
<stop offset="0.00462769" stop-color="#75F3AC"/>
<stop offset="1" stop-color="#41EEBA" stop-opacity="0"/>
</radialGradient>
<radialGradient id="paint3_radial_1086_815" cx="0" cy="0" r="1" gradientUnits="userSpaceOnUse" gradientTransform="translate(41.7797 8.56026) rotate(140.654) scale(35.4007 58.4896)">
<stop stop-color="#6AFF52"/>
<stop offset="1" stop-color="#00FFF0" stop-opacity="0"/>
</radialGradient>
<clipPath id="clip0_1086_815">
<rect width="100" height="13" fill="white" transform="translate(56.5161 9)"/>
</clipPath>
</defs>
</svg>
