<svg fill="none" viewBox="0 0 39 24" xmlns="http://www.w3.org/2000/svg" xmlns:xlink="http://www.w3.org/1999/xlink"><linearGradient id="a" gradientUnits="userSpaceOnUse" x1="24.1224" x2="17.6481" y1="-6.92667" y2="18.6738"><stop offset="0" stop-color="#35f787"/><stop offset=".3229" stop-color="#3cff8b"/><stop offset=".599" stop-color="#62d6f4"/><stop offset=".9479" stop-color="#00a3ff"/></linearGradient><radialGradient id="b" cx="0" cy="0" gradientTransform="matrix(-25.84741781 16.58228269 -25.1252958 -39.16372857 31.6562 7.41421)" gradientUnits="userSpaceOnUse" r="1"><stop offset="0" stop-color="#8ff087"/><stop offset="1" stop-color="#83ee41" stop-opacity="0"/></radialGradient><radialGradient id="c" cx="0" cy="0" gradientTransform="matrix(25.41937788 10.43478419 -11.7804019 28.69733403 10.7082 .002651)" gradientUnits="userSpaceOnUse" r="1"><stop offset=".00462769" stop-color="#75f3ac"/><stop offset="1" stop-color="#41eeba" stop-opacity="0"/></radialGradient><radialGradient id="d" cx="0" cy="0" gradientTransform="matrix(-21.19469504 17.37609137 -28.70900297 -35.01814937 32.901 6.6273)" gradientUnits="userSpaceOnUse" r="1"><stop offset="0" stop-color="#6aff52"/><stop offset="1" stop-color="#00fff0" stop-opacity="0"/></radialGradient><g clip-rule="evenodd" fill-rule="evenodd"><path d="m25.8822 7.55122c-1.1902 1.19024-1.7756 1.77561-2.517 1.77561-.7415 0-1.3269-.59512-2.5171-1.77561l-5.7756-5.77561c-1.1903-1.180488-1.7854-1.77561-2.5171-1.77561s-1.3268.595122-2.5171 1.77561l-7.70727 7.70732c-1.18049 1.19027-1.77561 1.78537-1.77561 2.51707s.59512 1.3268 1.77561 2.5171l7.70727 7.7073c1.1903 1.1902 1.7757 1.7756 2.5171 1.7756.7415 0 1.3268-.5951 2.5171-1.7756l5.7756-5.7756c1.1902-1.1903 1.7756-1.7756 2.5171-1.7756.7317 0 1.3268.5951 2.517 1.7756l1.7464 1.7463c1.1902 1.1903 1.7756 1.7756 2.5171 1.7756.7414 0 1.3268-.5951 2.517-1.7756l3.6781-3.678c1.1902-1.1903 1.7756-1.7756 1.7756-2.5171s-.5951-1.3268-1.7756-2.51707l-3.6781-3.67805c-1.1902-1.19025-1.7756-1.77561-2.517-1.77561-.7415 0-1.3269.59512-2.5171 1.77561z" fill="#fff"/><path d="m25.8822 7.55122c-1.1902 1.19024-1.7756 1.77561-2.517 1.77561-.7415 0-1.3269-.59512-2.5171-1.77561l-5.7756-5.77561c-1.1903-1.180488-1.7854-1.77561-2.5171-1.77561s-1.3268.595122-2.5171 1.77561l-7.70727 7.70732c-1.18049 1.19027-1.77561 1.78537-1.77561 2.51707s.59512 1.3268 1.77561 2.5171l7.70727 7.7073c1.1903 1.1902 1.7757 1.7756 2.5171 1.7756.7415 0 1.3268-.5951 2.5171-1.7756l5.7756-5.7756c1.1902-1.1903 1.7756-1.7756 2.5171-1.7756.7317 0 1.3268.5951 2.517 1.7756l1.7464 1.7463c1.1902 1.1903 1.7756 1.7756 2.5171 1.7756.7414 0 1.3268-.5951 2.517-1.7756l3.6781-3.678c1.1902-1.1903 1.7756-1.7756 1.7756-2.5171s-.5951-1.3268-1.7756-2.51707l-3.6781-3.67805c-1.1902-1.19025-1.7756-1.77561-2.517-1.77561-.7415 0-1.3269.59512-2.5171 1.77561z" fill="url(#a)"/><g fill-opacity=".8"><path d="m25.8822 7.55122c-1.1902 1.19024-1.7756 1.77561-2.517 1.77561-.7415 0-1.3269-.59512-2.5171-1.77561l-5.7756-5.77561c-1.1903-1.180488-1.7854-1.77561-2.5171-1.77561s-1.3268.595122-2.5171 1.77561l-7.70727 7.70732c-1.18049 1.19027-1.77561 1.78537-1.77561 2.51707s.59512 1.3268 1.77561 2.5171l7.70727 7.7073c1.1903 1.1902 1.7757 1.7756 2.5171 1.7756.7415 0 1.3268-.5951 2.5171-1.7756l5.7756-5.7756c1.1902-1.1903 1.7756-1.7756 2.5171-1.7756.7317 0 1.3268.5951 2.517 1.7756l1.7464 1.7463c1.1902 1.1903 1.7756 1.7756 2.5171 1.7756.7414 0 1.3268-.5951 2.517-1.7756l3.6781-3.678c1.1902-1.1903 1.7756-1.7756 1.7756-2.5171s-.5951-1.3268-1.7756-2.51707l-3.6781-3.67805c-1.1902-1.19025-1.7756-1.77561-2.517-1.77561-.7415 0-1.3269.59512-2.5171 1.77561z" fill="url(#b)"/><path d="m25.8822 7.55122c-1.1902 1.19024-1.7756 1.77561-2.517 1.77561-.7415 0-1.3269-.59512-2.5171-1.77561l-5.7756-5.77561c-1.1903-1.180488-1.7854-1.77561-2.5171-1.77561s-1.3268.595122-2.5171 1.77561l-7.70727 7.70732c-1.18049 1.19027-1.77561 1.78537-1.77561 2.51707s.59512 1.3268 1.77561 2.5171l7.70727 7.7073c1.1903 1.1902 1.7757 1.7756 2.5171 1.7756.7415 0 1.3268-.5951 2.5171-1.7756l5.7756-5.7756c1.1902-1.1903 1.7756-1.7756 2.5171-1.7756.7317 0 1.3268.5951 2.517 1.7756l1.7464 1.7463c1.1902 1.1903 1.7756 1.7756 2.5171 1.7756.7414 0 1.3268-.5951 2.517-1.7756l3.6781-3.678c1.1902-1.1903 1.7756-1.7756 1.7756-2.5171s-.5951-1.3268-1.7756-2.51707l-3.6781-3.67805c-1.1902-1.19025-1.7756-1.77561-2.517-1.77561-.7415 0-1.3269.59512-2.5171 1.77561z" fill="url(#c)"/><path d="m25.8822 7.55122c-1.1902 1.19024-1.7756 1.77561-2.517 1.77561-.7415 0-1.3269-.59512-2.5171-1.77561l-5.7756-5.77561c-1.1903-1.180488-1.7854-1.77561-2.5171-1.77561s-1.3268.595122-2.5171 1.77561l-7.70727 7.70732c-1.18049 1.19027-1.77561 1.78537-1.77561 2.51707s.59512 1.3268 1.77561 2.5171l7.70727 7.7073c1.1903 1.1902 1.7757 1.7756 2.5171 1.7756.7415 0 1.3268-.5951 2.5171-1.7756l5.7756-5.7756c1.1902-1.1903 1.7756-1.7756 2.5171-1.7756.7317 0 1.3268.5951 2.517 1.7756l1.7464 1.7463c1.1902 1.1903 1.7756 1.7756 2.5171 1.7756.7414 0 1.3268-.5951 2.517-1.7756l3.6781-3.678c1.1902-1.1903 1.7756-1.7756 1.7756-2.5171s-.5951-1.3268-1.7756-2.51707l-3.6781-3.67805c-1.1902-1.19025-1.7756-1.77561-2.517-1.77561-.7415 0-1.3269.59512-2.5171 1.77561z" fill="url(#d)"/></g></g></svg>