<?xml version="1.0" standalone="no"?>
<!DOCTYPE svg PUBLIC "-//W3C//DTD SVG 1.1//EN" "http://www.w3.org/Graphics/SVG/1.1/DTD/svg11.dtd">
<svg xmlns="http://www.w3.org/2000/svg" width="200" height="67" viewBox="0 0 200 67" fill="none">
<path fill-rule="evenodd" clip-rule="evenodd" d="M54.2822 0C43.1802 10.6796 26.8711 17.0338 17.989 20.6566C16.7075 24.0027 16.1369 26.7127 15.4466 30.2057C14.7809 35.2253 13.3231 44.7796 21.7263 46.4397C30.1295 48.0998 42.5975 32.529 47.6029 16.9931C41.7792 25.0725 23.642 35.7988 23.642 35.7988C24.8648 35.3702 33.0487 31.9088 37.916 29.181C37.916 34.1848 28.929 48.4408 21.7263 44.2452C15.3237 39.6176 21.3949 28.034 21.3949 28.034C30.5156 20.9058 38.5587 18.7053 54.2822 0ZM40.6235 2.76672C37.1608 7.04986 25.9283 15.2355 18.9626 19.6346L29.5162 14.9742C31.0572 14.2171 39.0338 5.6353 40.6235 2.76672ZM16.7817 18.2979C4.92323 27.4786 1.3327 30.034 0 31.1372C2.84114 30.8492 5.66451 30.6153 8.51975 30.3574C9.15645 45.337 17.7781 60.2926 22.5517 66.6666C22.5517 66.6666 6.19269 39.8571 16.7817 18.2979Z" fill="#6AB954"/>
<path d="M69.0643 31.58C67.8233 32.3034 66.4721 32.5816 65.0933 32.5816C61.012 32.5816 58.1165 29.688 58.1165 25.7371C58.1165 21.7027 61.012 18.8926 65.1209 18.8926C67.1891 18.8926 68.9264 19.5881 70.4431 21.1184L72.7044 18.8926C70.8844 16.8058 68.1819 15.7207 64.9554 15.7207C58.9162 15.7207 54.5039 19.922 54.5039 25.7371C54.5039 31.5522 58.9162 35.7535 64.9002 35.7535C67.6303 35.7535 70.4431 34.9188 72.4562 33.2772V25.5145H69.0643V31.58Z" fill="#6AB954"/>
<path d="M80.057 22.7874V20.6171H76.7754V35.4748H80.2225V28.2686C80.2225 25.2358 81.8771 23.6777 84.4968 23.6777C84.745 23.6777 84.9932 23.7055 85.2965 23.7612V20.4502C82.8422 20.4502 81.0497 21.2293 80.057 22.7874Z" fill="#6AB954"/>
<path d="M101.992 28.1294C101.992 23.4829 98.8486 20.4502 94.5466 20.4502C90.162 20.4502 86.9355 23.622 86.9355 28.046C86.9355 32.4699 90.1344 35.6696 95.0706 35.6696C97.6076 35.6696 99.6759 34.8349 101 33.2489L99.1519 31.1065C98.104 32.1916 96.8079 32.7203 95.1533 32.7203C92.5887 32.7203 90.7963 31.3291 90.3826 29.1589H101.937C101.965 28.825 101.992 28.4077 101.992 28.1294ZM94.5466 23.2325C96.8079 23.2325 98.4349 24.7072 98.7107 26.8496H90.355C90.6859 24.6793 92.3129 23.2325 94.5466 23.2325V23.2325Z" fill="#6AB954"/>
<path d="M119.086 28.1294C119.086 23.4829 115.942 20.4502 111.64 20.4502C107.256 20.4502 104.029 23.622 104.029 28.046C104.029 32.4699 107.228 35.6696 112.164 35.6696C114.701 35.6696 116.77 34.8349 118.093 33.2489L116.246 31.1065C115.198 32.1916 113.902 32.7203 112.247 32.7203C109.682 32.7203 107.89 31.3291 107.476 29.1589H119.031C119.058 28.825 119.086 28.4077 119.086 28.1294ZM111.64 23.2325C113.902 23.2325 115.529 24.7072 115.804 26.8496H107.449C107.78 24.6793 109.407 23.2325 111.64 23.2325Z" fill="#6AB954"/>
<path d="M130.746 20.4502C128.595 20.4502 126.803 21.1736 125.672 22.537V20.6171H122.391V35.4748H125.838V27.9625C125.838 24.9854 127.492 23.4829 129.947 23.4829C132.153 23.4829 133.449 24.7628 133.449 27.406V35.4748H136.896V26.9609C136.896 22.4813 134.276 20.4502 130.746 20.4502V20.4502Z" fill="#6AB954"/>
<path d="M149.233 32.2053C148.71 32.6227 148.02 32.8174 147.303 32.8174C145.979 32.8174 145.262 32.0384 145.262 30.5916V23.5244H149.206V20.7421H145.262V17.3477H141.815V20.7421H139.389V23.5244H141.815V30.675C141.815 33.9582 143.663 35.6832 146.889 35.6832C148.13 35.6832 149.371 35.3493 150.199 34.6816L149.233 32.2053Z" fill="#6AB954"/>
<path d="M166.363 28.1294C166.363 23.4829 163.22 20.4502 158.918 20.4502C154.533 20.4502 151.307 23.622 151.307 28.046C151.307 32.4699 154.506 35.6696 159.442 35.6696C161.979 35.6696 164.047 34.8349 165.371 33.2489L163.523 31.1065C162.475 32.1916 161.179 32.7203 159.524 32.7203C156.96 32.7203 155.167 31.3291 154.754 29.1589H166.308C166.336 28.825 166.363 28.4077 166.363 28.1294ZM158.918 23.2325C161.179 23.2325 162.806 24.7072 163.082 26.8496H154.726C155.057 24.6793 156.684 23.2325 158.918 23.2325Z" fill="#6AB954"/>
<path d="M176.368 35.6696C179.236 35.6696 181.525 34.4175 182.656 32.1916L180.008 30.6335C179.126 32.0525 177.802 32.6925 176.34 32.6925C173.803 32.6925 171.873 30.9396 171.873 28.046C171.873 25.1802 173.803 23.3995 176.34 23.3995C177.802 23.3995 179.126 24.0394 180.008 25.4584L182.656 23.9003C181.525 21.6466 179.236 20.4502 176.368 20.4502C171.708 20.4502 168.398 23.5942 168.398 28.046C168.398 32.4977 171.708 35.6696 176.368 35.6696V35.6696Z" fill="#6AB954"/>
<path d="M193.85 20.4504C191.809 20.4504 190.072 21.1182 188.941 22.3424V14.8301H185.494V35.475H188.941V27.9627C188.941 24.9856 190.596 23.4831 193.05 23.4831C195.256 23.4831 196.552 24.763 196.552 27.4062V35.475H199.999V26.9611C199.999 22.4815 197.38 20.4504 193.85 20.4504V20.4504Z" fill="#6AB954"/>
<path d="M63.6981 51.3095H64.5047L59.7826 40.9521H59.0346L54.3125 51.3095H55.1191L56.4242 48.3947H62.3783L63.6981 51.3095ZM56.7175 47.7584L59.4012 41.7807L62.0996 47.7584H56.7175Z" fill="#6AB954"/>
<path d="M70.0091 40.9521H66.3281V51.3095H67.0761V47.9212H70.0091C72.5901 47.9212 74.1446 46.6191 74.1446 44.4441C74.1446 42.2542 72.5901 40.9521 70.0091 40.9521ZM70.0091 47.2406H67.0761V41.6328H70.0091C72.2088 41.6328 73.382 42.6537 73.382 44.4441C73.382 46.2196 72.2088 47.2406 70.0091 47.2406Z" fill="#6AB954"/>
<path d="M80.3606 40.9521H76.6797V51.3095H77.4276V47.9212H80.3606C82.9417 47.9212 84.4961 46.6191 84.4961 44.4441C84.4961 42.2542 82.9417 40.9521 80.3606 40.9521ZM80.3606 47.2406H77.4276V41.6328H80.3606C82.5604 41.6328 83.7336 42.6537 83.7336 44.4441C83.7336 46.2196 82.5604 47.2406 80.3606 47.2406Z" fill="#6AB954"/>
<path d="M89.8939 51.4087C92.4309 51.4087 93.5894 50.1362 93.5894 48.6714C93.5894 44.9131 87.1808 46.7478 87.1808 43.6406C87.1808 42.5013 88.0754 41.5692 90.0698 41.5692C90.9937 41.5692 92.0349 41.8503 92.8855 42.4421L93.1642 41.8355C92.3723 41.2584 91.1991 40.9033 90.0698 40.9033C87.5475 40.9033 86.4329 42.1906 86.4329 43.6554C86.4329 47.4729 92.8416 45.6085 92.8416 48.7158C92.8416 49.8403 91.9323 50.7428 89.8792 50.7428C88.5007 50.7428 87.1955 50.1806 86.4916 49.4408L86.1543 50.003C86.9022 50.8316 88.3687 51.4087 89.8939 51.4087V51.4087Z" fill="#6AB954"/>
<path d="M106.695 41.6328V40.9521H99.832V51.3095H100.58V46.7375H106.05V46.0569H100.58V41.6328H106.695Z" fill="#6AB954"/>
<path d="M113.373 51.4087C116.424 51.4087 118.711 49.1744 118.711 46.156C118.711 43.1376 116.424 40.9033 113.373 40.9033C110.308 40.9033 108.035 43.1524 108.035 46.156C108.035 49.1596 110.308 51.4087 113.373 51.4087ZM113.373 50.7132C110.748 50.7132 108.783 48.7749 108.783 46.156C108.783 43.5371 110.748 41.5987 113.373 41.5987C115.984 41.5987 117.949 43.5371 117.949 46.156C117.949 48.7749 115.984 50.7132 113.373 50.7132Z" fill="#6AB954"/>
<path d="M125.329 51.3835C127.881 51.3835 129.45 49.8743 129.45 46.915V40.9521H128.702V46.8854C128.702 49.4748 127.485 50.6881 125.344 50.6881C123.202 50.6881 121.971 49.4748 121.971 46.8854V40.9521H121.223V46.915C121.223 49.8743 122.777 51.3835 125.329 51.3835Z" fill="#6AB954"/>
<path d="M140.555 40.9521V49.9483L133.574 40.9521H132.943V51.3095H133.691V42.3134L140.686 51.3095H141.302V40.9521H140.555Z" fill="#6AB954"/>
<path d="M144.861 51.3095H148.924C152.179 51.3095 154.379 49.1493 154.379 46.1308C154.379 43.1124 152.179 40.9521 148.924 40.9521H144.861V51.3095ZM145.609 50.6289V41.6328H148.865C151.769 41.6328 153.631 43.4971 153.631 46.1308C153.631 48.7646 151.769 50.6289 148.865 50.6289H145.609Z" fill="#6AB954"/>
<path d="M164.505 51.3095H165.311L160.589 40.9521H159.841L155.119 51.3095H155.926L157.231 48.3947H163.185L164.505 51.3095ZM157.524 47.7584L160.208 41.7807L162.906 47.7584H157.524Z" fill="#6AB954"/>
<path d="M168.582 51.3095H169.33V41.6328H173.026V40.9521H164.887V41.6328H168.582V51.3095Z" fill="#6AB954"/>
<path d="M174.848 51.3095H175.595V40.9521H174.848V51.3095Z" fill="#6AB954"/>
<path d="M183.608 51.4087C186.658 51.4087 188.946 49.1744 188.946 46.156C188.946 43.1376 186.658 40.9033 183.608 40.9033C180.543 40.9033 178.27 43.1524 178.27 46.156C178.27 49.1596 180.543 51.4087 183.608 51.4087ZM183.608 50.7132C180.983 50.7132 179.017 48.7749 179.017 46.156C179.017 43.5371 180.983 41.5987 183.608 41.5987C186.218 41.5987 188.183 43.5371 188.183 46.156C188.183 48.7749 186.218 50.7132 183.608 50.7132Z" fill="#6AB954"/>
<path d="M199.164 40.9521V49.9483L192.183 40.9521H191.553V51.3095H192.301V42.3134L199.296 51.3095H199.912V40.9521H199.164Z" fill="#6AB954"/>
</svg>