<svg width="32" height="32" viewBox="0 0 32 32" fill="none" xmlns="http://www.w3.org/2000/svg">
<g id="Frame 2830">
<path id="Union" fill-rule="evenodd" clip-rule="evenodd" d="M16.0199 6.18753L14.996 9.70325V9.6987C14.8601 10.1587 14.2077 10.3408 13.8544 10.0175L11.1588 7.53553C11.0863 7.46722 11.0319 7.38525 11.0093 7.28961L9.76344 2.56708C9.52334 1.66538 10.1757 0.69992 11.2222 0.408461L12.382 0.0851247C13.4421 -0.210888 14.5067 0.290056 14.7514 1.20086L16.0199 5.90974C16.047 6.00082 16.047 6.09645 16.0199 6.18753ZM11.8481 11.2015L10.8197 7.69034C10.7925 7.59926 10.7427 7.51728 10.6747 7.45353L7.0731 4.18373C6.37543 3.55072 5.21113 3.70556 4.48174 4.52984L3.67987 5.43154C2.95501 6.24671 2.92783 7.41254 3.61191 8.041L7.19995 11.3381C7.27244 11.4019 7.35852 11.4474 7.45818 11.4656L11.0598 12.0895C11.531 12.1715 11.9795 11.6615 11.8481 11.2015ZM7.245 11.7799L9.99945 14.1753L10.004 14.1708C10.3619 14.485 10.2577 15.159 9.81824 15.3457L6.45219 16.7757C6.36158 16.8121 6.26191 16.8303 6.16677 16.8121L1.37366 15.9878C0.458526 15.8284 -0.139481 14.8356 0.0281425 13.7563L0.213887 12.5632C0.38604 11.4748 1.27852 10.7097 2.20724 10.8645L6.99583 11.6615C7.08643 11.6751 7.17251 11.7161 7.245 11.7799ZM10.0484 17.6773L6.44228 17.1582C6.34715 17.1445 6.25201 17.1582 6.16593 17.1946L1.70806 19.1301C0.842764 19.5035 0.502988 20.6329 0.946963 21.6439L1.43171 22.7505C1.87116 23.7479 2.90861 24.2625 3.76484 23.8936L8.24083 21.9809C8.33144 21.9445 8.40393 21.8807 8.46282 21.7987L10.5241 18.7657C10.7914 18.3695 10.5241 17.7456 10.0484 17.6773ZM11.9753 20.601L8.66365 22.1221C8.57758 22.1631 8.50509 22.2223 8.45073 22.2997L5.74157 26.3482C5.21605 27.1315 5.53318 28.27 6.45284 28.8803L7.45858 29.5497C8.36465 30.1509 9.51536 30.0188 10.0363 29.2446L12.7727 25.2052C12.827 25.1232 12.8588 25.0321 12.8588 24.9319L12.963 21.2568C12.9766 20.7787 12.4103 20.4007 11.9753 20.601ZM18.4541 10.1541L21.2041 7.75415C21.2766 7.6904 21.3309 7.61298 21.3581 7.5219L22.8214 2.87223C23.1068 1.97053 22.4816 0.973194 21.4306 0.645303L20.2799 0.290088C19.2424 -0.0332485 18.1778 0.422155 17.8924 1.31475L16.3974 5.96442C16.3657 6.0555 16.3657 6.15569 16.3928 6.25132L17.3216 9.80347C17.4439 10.268 18.0917 10.4684 18.4496 10.1541H18.4541ZM24.7236 11.8891L21.1174 12.4129V12.4083C20.6463 12.4766 20.2068 11.9529 20.3563 11.4975L21.4844 8.00454C21.5116 7.91346 21.5705 7.82693 21.643 7.76773L25.4031 4.66643C26.1235 4.07441 27.2651 4.27023 27.9628 5.10362L28.7375 6.02809C29.4442 6.87059 29.4352 8.05008 28.7103 8.65577L24.9773 11.7753C24.9048 11.839 24.8187 11.8755 24.7236 11.8891ZM22.1444 15.7601L25.4561 17.2811C25.5422 17.3221 25.6373 17.3358 25.7279 17.3267L30.5437 16.7347C31.4769 16.6208 32.1202 15.6326 31.9798 14.5396L31.8258 13.3373C31.6853 12.2535 30.8291 11.4702 29.9094 11.5795L25.0801 12.1442C24.9849 12.1533 24.8943 12.1943 24.8173 12.258L21.9904 14.5851C21.6189 14.8903 21.7095 15.5643 22.1444 15.7646V15.7601ZM23.1797 22.2132L21.209 19.1347H21.2136C20.9553 18.7294 21.2453 18.1146 21.721 18.0599L25.3543 17.641C25.4494 17.6273 25.5491 17.6455 25.6352 17.6865L30.0025 19.836C30.836 20.2459 31.135 21.3707 30.6684 22.3589L30.152 23.4519C29.6808 24.4492 28.6071 24.9274 27.7599 24.5175L23.3881 22.3999C23.3021 22.3589 23.2341 22.2952 23.1797 22.2132ZM18.6069 21.4663V25.1278C18.6069 25.2234 18.6341 25.319 18.6839 25.3965L21.2209 29.5543C21.7148 30.3604 22.8745 30.5425 23.8032 29.955L24.8271 29.3129C25.7468 28.7346 26.1047 27.6279 25.6244 26.8264L23.1056 22.6458C23.0557 22.5638 22.9832 22.4955 22.8926 22.4545L19.6127 20.8333C19.1823 20.6238 18.6069 20.9836 18.6069 21.4618V21.4663ZM13.1976 25.0959L15.1638 22.0128H15.1683C15.4266 21.6121 16.1061 21.6212 16.3507 22.031L18.2399 25.1779C18.2943 25.2644 18.3169 25.36 18.3169 25.4557L18.1855 30.3422C18.1584 31.2757 17.2659 32.0135 16.1786 31.9998L14.9735 31.9816C13.8772 31.9634 12.9983 31.1847 13.0164 30.2374L13.1161 25.36C13.1161 25.269 13.1433 25.1779 13.1976 25.0959Z" fill="black"/>
</g>
</svg>
