<svg width="108" height="21" viewBox="0 0 108 21" fill="none" xmlns="http://www.w3.org/2000/svg">
<g id="Layer_1" clip-path="url(#clip0_2_542)" filter="url(#filter0_d_2_542)">
<path id="Vector" d="M16.5 2.69286H11.7409V13H8.80317V2.69286H4.05876V0H16.5588L16.5 2.69286Z" fill="white"/>
<path id="Vector_2" d="M19.5242 10.8179L18.4667 13H15.3086L21.6688 0H24.959L31.5248 13H28.3374L27.2358 10.8179H19.5242ZM23.358 3.07976L20.7875 8.20239H25.9725L23.358 3.07976Z" fill="white"/>
<path id="Vector_3" d="M36.5041 9.31667V13H33.5664V0H41.8361C44.7738 0 46.6833 1.87262 46.6833 4.64286C46.7221 5.44008 46.5556 6.23353 46.2013 6.93917C45.8471 7.6448 45.3183 8.23636 44.671 8.65119L46.8743 13.0155H43.4665L41.5864 9.33215L36.5041 9.31667ZM41.792 6.62381C42.8349 6.62381 43.4812 5.88096 43.4812 4.61191C43.5117 4.3642 43.4901 4.11245 43.418 3.87452C43.3458 3.63659 43.2248 3.41831 43.0636 3.23516C42.9024 3.05202 42.7049 2.90849 42.4852 2.81477C42.2654 2.72105 42.0288 2.67943 41.792 2.69286H36.5041V6.62381H41.792Z" fill="white"/>
<path id="Vector_4" d="M60.6241 2.69286H55.8062V13H52.8685V2.69286H48.1094V0H60.6241V2.69286Z" fill="white"/>
<path id="Vector_5" d="M65.7347 5.01429H73.27V7.69167H65.7347V10.3071H74.6654V13H62.7383V0H74.6654V2.69286H65.7347V5.01429Z" fill="white"/>
<path id="Vector_6" d="M81.0123 5.01429H88.5623V7.69167H81.0123V10.3071H89.943V13H78.0159V0H89.943V2.69286H81.0123V5.01429Z" fill="white"/>
<path id="Vector_7" d="M104.002 13H93.3086V0H96.2463V10.3071H103.943L104.002 13Z" fill="white"/>
</g>
<defs>
<filter id="filter0_d_2_542" x="0" y="0" width="108" height="21" filterUnits="userSpaceOnUse" color-interpolation-filters="sRGB">
<feFlood flood-opacity="0" result="BackgroundImageFix"/>
<feColorMatrix in="SourceAlpha" type="matrix" values="0 0 0 0 0 0 0 0 0 0 0 0 0 0 0 0 0 0 127 0" result="hardAlpha"/>
<feOffset dy="4"/>
<feGaussianBlur stdDeviation="2"/>
<feComposite in2="hardAlpha" operator="out"/>
<feColorMatrix type="matrix" values="0 0 0 0 0 0 0 0 0 0 0 0 0 0 0 0 0 0 0.25 0"/>
<feBlend mode="normal" in2="BackgroundImageFix" result="effect1_dropShadow_2_542"/>
<feBlend mode="normal" in="SourceGraphic" in2="effect1_dropShadow_2_542" result="shape"/>
</filter>
<clipPath id="clip0_2_542">
<rect width="100" height="13" fill="white" transform="translate(4)"/>
</clipPath>
</defs>
</svg>
