<svg width="73" height="31" viewBox="0 0 73 31" fill="none" xmlns="http://www.w3.org/2000/svg">
<path id="Union" opacity="0.6" fill-rule="evenodd" clip-rule="evenodd" d="M58.0765 6.71579L55.3007 4.00632C55.0029 3.71559 54.996 3.23883 55.2852 2.93956L57.9036 0.230668C58.1958 -0.0716857 58.6786 -0.0775736 58.9781 0.217563L61.7538 2.95248C62.0502 3.2446 62.0549 3.72139 61.7643 4.0193L59.1461 6.70275C58.8543 7.00174 58.3755 7.00758 58.0765 6.71579ZM65.2019 6.71313L62.4261 4.00369C62.1293 3.71399 62.1212 3.23931 62.408 2.93967L64.995 0.236103C65.2868 -0.0687889 65.7716 -0.0759189 66.0722 0.220261L68.8478 2.95513C69.1432 3.24621 69.1491 3.72092 68.8609 4.01922L66.274 6.69736C65.9828 6.99888 65.5019 7.00596 65.2019 6.71313ZM59.6716 8.75605H62.8125C69.2878 8.75605 72.5979 11.781 72.5979 17.6616C72.5979 23.5422 69.2878 26.5672 62.8125 26.5672H59.6716C58.25 26.5672 56.9811 26.4215 55.8662 26.1317H24.8332C23.8047 29.1605 21.1861 30.6697 17.0193 30.6697H8.31151C2.80272 30.6697 0 28.0319 0 22.7321V17.8316H4.10743V22.7321C4.10743 25.7087 5.89537 27.1123 9.27797 27.1365H16.0528C19.2284 27.1365 20.9985 25.8994 21.2033 23.2651V9.19168H25.3107V13.2941H25.3308V22.5985H50.9922C50.2567 21.2767 49.8862 19.629 49.8862 17.6616C49.8862 11.781 53.1963 8.75605 59.6716 8.75605ZM60.3964 23.0582H62.0877C66.171 23.034 68.3213 21.219 68.3213 17.6616C68.3213 14.08 66.171 12.265 62.0877 12.265H60.3964C56.3131 12.265 54.1628 14.08 54.1628 17.6616C54.1628 21.219 56.3131 23.034 60.3964 23.0582Z" fill="white"/>
</svg>
