<svg width="73" height="21" viewBox="0 0 73 21" fill="none" xmlns="http://www.w3.org/2000/svg">
<path id="Union" fill-rule="evenodd" clip-rule="evenodd" d="M12.947 18.5558H9.801C3.3154 18.5558 0 15.5066 0 9.67443C0 3.76963 3.3154 0.744629 9.801 0.744629H12.947C19.4326 0.744629 22.748 3.76963 22.748 9.67443C22.748 13.5222 21.1992 16.2084 18.2952 17.5636L20.3764 21H15.8026L14.2296 18.5074C13.8182 18.5316 13.3826 18.5558 12.947 18.5558ZM10.527 15.0468H12.0274L9.8494 11.6104H14.762L16.1414 13.8852L16.2624 14.103C17.7386 13.2802 18.4646 11.7556 18.4646 9.67443C18.4646 6.06863 16.3108 4.25363 12.221 4.25363H10.527C6.4372 4.25363 4.2834 6.06863 4.2834 9.67443C4.2834 13.2076 6.4372 15.0226 10.527 15.0468ZM51.4861 2.18463V11.7194C51.4861 16.7288 48.2917 19.5602 43.1613 19.5602H34.0984C28.8712 19.5602 25.7736 16.7288 25.7736 11.7194V2.18463H30.0086V11.6226C30.0086 14.6718 31.267 15.8576 35.1874 15.8576H42.0965C45.8959 15.8576 47.2753 14.6718 47.2753 11.6226V2.18463H51.4861ZM54.4489 2.25724V19.1972H72.1633V15.6882H58.5629V2.25724H54.4489Z" fill="white"/>
</svg>
